<svg width="20" height="20" viewBox="0 0 20 20" fill="none" xmlns="http://www.w3.org/2000/svg">
<path d="M12.8707 3.49805H3.57318C2.70077 3.49805 1.99219 4.20663 1.99219 5.07904V18.4192C1.99219 19.2916 2.70077 20.0002 3.57318 20.0002H12.8707C13.7432 20.0002 14.4517 19.2916 14.4517 18.4192V5.07904C14.4476 4.20663 13.7391 3.49805 12.8707 3.49805ZM13.3418 18.4151C13.3418 18.6772 13.1288 18.8902 12.8666 18.8902H3.56909C3.30695 18.8902 3.09397 18.6772 3.09397 18.4151V5.07904C3.09397 4.81691 3.30695 4.60392 3.56909 4.60392H12.8666C13.1288 4.60392 13.3418 4.81691 13.3418 5.07904V18.4151Z" fill="#0685E1"/>
<path d="M16.4254 0H7.12787C6.25546 0 5.54688 0.708581 5.54688 1.581C5.54688 1.88818 5.79263 2.13393 6.09981 2.13393C6.407 2.13393 6.65275 1.88818 6.65275 1.581C6.65275 1.31886 6.86574 1.10588 7.12787 1.10588H16.4254C16.6876 1.10588 16.9005 1.31886 16.9005 1.581V14.9212C16.9005 15.1833 16.6876 15.3963 16.4254 15.3963C16.1182 15.3963 15.8725 15.642 15.8725 15.9492C15.8725 16.2564 16.1182 16.5021 16.4254 16.5021C17.2978 16.5021 18.0064 15.7936 18.0064 14.9212V1.581C18.0064 0.708581 17.2978 0 16.4254 0Z" fill="#0685E1"/>
</svg>
