<svg width="20" height="16" viewBox="0 0 20 16" fill="none" xmlns="http://www.w3.org/2000/svg">
<rect y="0.858398" width="20" height="14.2857" rx="2" fill="white"/>
<mask id="mask0_2046_867" style="mask-type:luminance" maskUnits="userSpaceOnUse" x="0" y="0" width="20" height="16">
<rect y="0.858398" width="20" height="14.2857" rx="2" fill="white"/>
</mask>
<g mask="url(#mask0_2046_867)">
<rect y="0.858398" width="20" height="14.2857" fill="#0A17A7"/>
<path fill-rule="evenodd" clip-rule="evenodd" d="M-0.914062 -0.510742L7.61905 5.24491V-0.09375H12.381V5.24674L20.9168 -0.510737L21.9819 1.06838L15.233 5.62054H20V10.3824H15.2357L21.9832 14.9336L20.918 16.5128L12.381 10.7544V16.0967H7.61905V10.7562L-0.915339 16.5128L-1.98047 14.9336L4.76696 10.3824H0V5.62054H4.76966L-1.97919 1.06838L-0.914062 -0.510742Z" fill="white"/>
<path fill-rule="evenodd" clip-rule="evenodd" d="M22.6132 -0.722515C22.6975 -0.59435 22.662 -0.422101 22.5338 -0.337785L13.4871 5.61378C13.359 5.6981 13.1867 5.66255 13.1024 5.53439C13.0181 5.40622 13.0536 5.23397 13.1818 5.14966L22.2285 -0.80191C22.3566 -0.886226 22.5289 -0.85068 22.6132 -0.722515Z" fill="#DB1F35"/>
<path fill-rule="evenodd" clip-rule="evenodd" d="M22.6337 16.2642C22.7194 16.137 22.6858 15.9643 22.5586 15.8786L14.4487 10.4123C14.3215 10.3265 14.1488 10.3601 14.0631 10.4873C13.9773 10.6146 14.011 10.7872 14.1382 10.8729L22.2481 16.3393C22.3753 16.425 22.5479 16.3914 22.6337 16.2642Z" fill="#DB1F35"/>
<path fill-rule="evenodd" clip-rule="evenodd" d="M-2.97207 -0.490716C-2.88634 -0.617934 -2.7137 -0.651562 -2.58648 -0.565824L5.87282 5.13521C6.00003 5.22095 6.03366 5.39358 5.94792 5.5208C5.86219 5.64802 5.68955 5.68164 5.56233 5.59591L-2.89697 -0.105126C-3.02418 -0.190863 -3.05781 -0.363498 -2.97207 -0.490716Z" fill="#DB1F35"/>
<path fill-rule="evenodd" clip-rule="evenodd" d="M-2.97322 16.948C-2.88844 17.0758 -2.71606 17.1107 -2.5882 17.026L6.7886 10.8077C6.91645 10.7229 6.95137 10.5505 6.86658 10.4227C6.78179 10.2948 6.60941 10.2599 6.48156 10.3447L-2.89524 16.563C-3.0231 16.6477 -3.05801 16.8201 -2.97322 16.948Z" fill="#DB1F35"/>
<path fill-rule="evenodd" clip-rule="evenodd" d="M0 9.42983H8.57143V15.1441H11.4286V9.42983H20V6.57268H11.4286V0.858398H8.57143V6.57268H0V9.42983Z" fill="#E6273E"/>
</g>
</svg>
