<svg width="16" height="16" viewBox="0 0 16 16" fill="none" xmlns="http://www.w3.org/2000/svg">
<path d="M15.4913 4.72413C15.4554 3.9106 15.3239 3.3513 15.1354 2.86666C14.941 2.35223 14.6419 1.89166 14.25 1.50879C13.8671 1.11996 13.4035 0.817821 12.8951 0.626443C12.4076 0.437986 11.8512 0.306428 11.0377 0.270559C10.2181 0.231653 9.95791 0.222656 7.87916 0.222656C5.80041 0.222656 5.54021 0.231653 4.72364 0.267521C3.91011 0.30339 3.35081 0.435065 2.86629 0.623405C2.35175 0.817821 1.89118 1.11692 1.5083 1.50879C1.11947 1.89166 0.81745 2.35527 0.625955 2.86374C0.437497 3.3513 0.30594 3.90756 0.270071 4.72109C0.231164 5.5407 0.222168 5.80089 0.222168 7.87965C0.222168 9.9584 0.231164 10.2186 0.267033 11.0352C0.302902 11.8487 0.434577 12.408 0.623034 12.8926C0.81745 13.4071 1.11947 13.8676 1.5083 14.2505C1.89118 14.6393 2.35478 14.9415 2.86326 15.1329C3.35081 15.3213 3.90707 15.4529 4.72072 15.4887C5.53717 15.5247 5.79748 15.5336 7.87624 15.5336C9.95499 15.5336 10.2152 15.5247 11.0318 15.4887C11.8453 15.4529 12.4046 15.3213 12.8891 15.1329C13.9181 14.735 14.7316 13.9215 15.1294 12.8926C15.3178 12.4051 15.4495 11.8487 15.4853 11.0352C15.5212 10.2186 15.5302 9.9584 15.5302 7.87965C15.5302 5.80089 15.5272 5.5407 15.4913 4.72413ZM14.1125 10.9753C14.0796 11.7231 13.954 12.1269 13.8493 12.3961C13.592 13.0631 13.0626 13.5925 12.3956 13.8498C12.1264 13.9544 11.7197 14.08 10.9749 14.1129C10.1673 14.1489 9.92508 14.1577 7.8822 14.1577C5.83931 14.1577 5.59407 14.1489 4.78942 14.1129C4.04167 14.08 3.63788 13.9544 3.36869 13.8498C3.03676 13.7271 2.73462 13.5327 2.48938 13.2784C2.23514 13.0301 2.04073 12.731 1.91805 12.3991C1.81336 12.1299 1.68776 11.7231 1.65493 10.9784C1.61895 10.1708 1.61007 9.92849 1.61007 7.88561C1.61007 5.84272 1.61895 5.59748 1.65493 4.79295C1.68776 4.04519 1.81336 3.64141 1.91805 3.37222C2.04073 3.04017 2.23514 2.73814 2.49242 2.49279C2.74058 2.23855 3.03968 2.04414 3.37173 1.92157C3.64092 1.81689 4.04774 1.69129 4.79246 1.65834C5.60003 1.62247 5.84235 1.61348 7.88512 1.61348C9.93104 1.61348 10.1732 1.62247 10.9779 1.65834C11.7256 1.69129 12.1294 1.81689 12.3986 1.92157C12.7306 2.04414 13.0327 2.23855 13.2779 2.49279C13.5322 2.74107 13.7266 3.04017 13.8493 3.37222C13.954 3.64141 14.0796 4.04811 14.1125 4.79295C14.1484 5.60052 14.1574 5.84272 14.1574 7.88561C14.1574 9.92849 14.1484 10.1678 14.1125 10.9753Z" fill="white"/>
<path d="M7.87849 3.94629C5.70709 3.94629 3.94531 5.70795 3.94531 7.87947C3.94531 10.051 5.70709 11.8127 7.87849 11.8127C10.05 11.8127 11.8117 10.051 11.8117 7.87947C11.8117 5.70795 10.05 3.94629 7.87849 3.94629ZM7.87849 10.4308C6.4698 10.4308 5.32714 9.28828 5.32714 7.87947C5.32714 6.47066 6.4698 5.32811 7.87849 5.32811C9.28731 5.32811 10.4299 6.47066 10.4299 7.87947C10.4299 9.28828 9.28731 10.4308 7.87849 10.4308Z" fill="white"/>
<path d="M12.8855 3.79109C12.8855 4.29806 12.4744 4.70913 11.9674 4.70913C11.4604 4.70913 11.0493 4.29806 11.0493 3.79109C11.0493 3.284 11.4604 2.87305 11.9674 2.87305C12.4744 2.87305 12.8855 3.284 12.8855 3.79109Z" fill="white"/>
</svg>
