<svg width="16" height="16" viewBox="0 0 16 16" fill="none" xmlns="http://www.w3.org/2000/svg">
<g clip-path="url(#clip0_936_2524)">
<rect width="16" height="16" fill="white"/>
<path d="M15.9968 16.0005V15.9998H16.0008V10.1318C16.0008 7.26114 15.3828 5.0498 12.0268 5.0498C10.4135 5.0498 9.33083 5.93514 8.88883 6.77447H8.84216V5.3178H5.66016V15.9998H8.9735V10.7105C8.9735 9.31781 9.2375 7.97114 10.9622 7.97114C12.6615 7.97114 12.6868 9.56047 12.6868 10.7998V16.0005H15.9968Z" fill="#1A98DF"/>
<path d="M0.263672 5.31836H3.58101V16.0004H0.263672V5.31836Z" fill="#1A98DF"/>
<path d="M1.92133 0C0.860667 0 0 0.860667 0 1.92133C0 2.982 0.860667 3.86067 1.92133 3.86067C2.982 3.86067 3.84267 2.982 3.84267 1.92133C3.842 0.860667 2.98133 0 1.92133 0V0Z" fill="#1A98DF"/>
</g>
<defs>
<clipPath id="clip0_936_2524">
<rect width="16" height="16" fill="white"/>
</clipPath>
</defs>
</svg>
