<svg width="15" height="14" viewBox="0 0 15 14" fill="none" xmlns="http://www.w3.org/2000/svg">
<path fill-rule="evenodd" clip-rule="evenodd" d="M7.96816 3.86315V5.44821C8.29774 4.93638 8.75743 4.52023 9.3007 4.24189C9.84397 3.96355 10.4515 3.83289 11.0619 3.86315C14.3432 3.86315 14.9994 5.91441 14.9994 8.5251V13.8397H11.9994V9.17778C11.9994 7.96567 11.8119 6.56708 10.0307 6.56708C8.24941 6.56708 7.96816 7.77919 7.96816 8.9913V13.8397H4.96816V3.86315H7.96816ZM2.99941 1.34569C3.00684 1.57733 2.9599 1.80752 2.86231 2.01798C2.76473 2.22844 2.61918 2.4134 2.43721 2.55818C2.25524 2.70296 2.04186 2.80358 1.81398 2.85207C1.58611 2.90056 1.35001 2.89557 1.12441 2.83752C0.91846 2.77679 0.728031 2.67278 0.566001 2.53252C0.40397 2.39227 0.274119 2.21904 0.185231 2.02455C0.0963439 1.83006 0.0504937 1.61886 0.0507826 1.40522C0.0510715 1.19159 0.0974925 0.980503 0.186906 0.786255C0.290511 0.594297 0.435134 0.427238 0.610608 0.296821C0.786082 0.166403 0.988148 0.0757919 1.2026 0.0313574C1.41706 -0.0130771 1.63869 -0.0102565 1.85193 0.0396203C2.06518 0.089497 2.26484 0.185219 2.43691 0.320059C2.71816 0.599777 2.90566 0.972733 2.90566 1.34569H2.99941Z" fill="white"/>
<path d="M3 3.86328H0V13.8399H3V3.86328Z" fill="white"/>
</svg>
