<svg width="320" height="46" viewBox="0 0 320 46" fill="none" xmlns="http://www.w3.org/2000/svg">
<path d="M61.1508 0H49.5845C49.4188 0 49.2586 0.0587879 49.1322 0.165895L2.42899 39.7506C2.33444 39.8307 2.26288 39.9345 2.22164 40.0514L0.515099 44.8866C0.354466 45.3417 0.692104 45.8189 1.17475 45.8189H47.6637C47.9717 45.8189 48.2435 45.6174 48.333 45.3226L61.8202 0.902762C61.9566 0.453458 61.6204 0 61.1508 0Z" fill="#FF9900"/>
<path fill-rule="evenodd" clip-rule="evenodd" d="M46.6363 2.08664C46.6995 2.03322 46.7795 2.00391 46.8622 2.00391H61.0453C61.28 2.00391 61.4481 2.23049 61.38 2.4551L60.2055 6.33112C60.1608 6.47859 60.0248 6.57944 59.8707 6.57944H42.2807C41.9548 6.57944 41.806 6.17311 42.0548 5.96266L46.6363 2.08664ZM34.7972 12.2109C34.7145 12.2109 34.6345 12.2402 34.5713 12.2936L30.4057 15.8177C30.157 16.0282 30.3058 16.4345 30.6316 16.4345H56.8843C57.0384 16.4345 57.1744 16.3337 57.2191 16.1862L58.287 12.6621C58.355 12.4375 58.1869 12.2109 57.9522 12.2109H34.7972ZM18.983 26.2892C18.6572 26.2892 18.5084 25.8829 18.7571 25.6724L22.9223 22.1487C22.9854 22.0953 23.0655 22.0659 23.1482 22.0659H54.9658C55.2005 22.0659 55.3686 22.2925 55.3006 22.5171L54.2328 26.0409C54.1881 26.1883 54.0521 26.2892 53.898 26.2892H18.983ZM11.4996 31.9206C11.4169 31.9206 11.3368 31.95 11.2737 32.0034L7.10829 35.5273C6.85952 35.7377 7.00834 36.1441 7.33419 36.1441H50.9117C51.0658 36.1441 51.2017 36.0432 51.2464 35.8958L52.3143 32.3718C52.3824 32.1472 52.2143 31.9206 51.9796 31.9206H11.4996ZM0.350101 45.9995C0.103476 45.9995 -0.06569 45.7511 0.0246456 45.5216L1.41203 41.9972C1.46467 41.8634 1.59377 41.7755 1.73749 41.7755H48.9932C49.2279 41.7755 49.396 42.0021 49.3279 42.2267L48.2599 45.7512C48.2152 45.8987 48.0793 45.9995 47.9252 45.9995H0.350101Z" fill="#3B2F91"/>
<path d="M34.6736 18.187H31.2057C31.061 18.187 30.9312 18.2761 30.8793 18.4112L24.153 35.8993C24.0649 36.1284 24.234 36.3747 24.4795 36.3747H28.1064C28.249 36.3747 28.3772 36.2882 28.4307 36.156L31.5471 28.4469C31.6142 28.2811 31.7955 28.1925 31.9675 28.2417L32.5238 28.4006C32.7205 28.4568 32.8272 28.6691 32.7549 28.8605L30.095 35.9013C30.0086 36.1301 30.1777 36.3747 30.4222 36.3747H34.5646C34.7133 36.3747 34.8458 36.2807 34.8948 36.1403L40.9528 18.8079C41.0303 18.5861 40.8714 18.3524 40.6366 18.343L36.9935 18.1973C36.8407 18.1912 36.7016 18.2851 36.6501 18.4291L34.2077 25.2678C34.1526 25.4222 33.9976 25.5176 33.835 25.4972L33.1408 25.4105C32.9208 25.383 32.7816 25.1602 32.8532 24.9504L35.0046 18.6498C35.0821 18.4229 34.9135 18.187 34.6736 18.187Z" fill="white"/>
<path d="M47.9289 18.3618H43.5568L36.5615 36.5495H46.0052V33.2267H42.5075L47.9289 18.3618Z" fill="white"/>
<path d="M97.8359 12.1981V22.3823H99.8419H101.848V12.1981V2.0138H99.8419H97.8359V12.1981Z" fill="#251D61"/>
<path d="M116.662 12.1981V22.3823H118.668H120.674V12.1981V2.0138H118.668H116.662V12.1981Z" fill="#251D61"/>
<path d="M281.894 2.29156C281.833 2.35328 281.771 6.92077 281.771 12.4141V22.3823H286.987C292.943 22.3823 292.48 22.6292 292.326 19.4196L292.202 17.4754L289.085 17.3828C285.968 17.2902 285.937 17.2902 285.876 16.5187C285.876 16.0866 285.845 12.7536 285.814 9.0502L285.783 2.38414L283.9 2.26069C282.882 2.22983 281.956 2.22983 281.894 2.29156Z" fill="#251D61"/>
<path d="M69.752 12.3524V22.3823H71.758H73.764V18.216V14.0497H76.0786H78.3932V18.216V22.3823H80.3992H82.4052V12.3524V2.32241H80.3992H78.3932V5.87147V9.4514L76.1712 9.35881L73.9183 9.26623L73.8257 5.77889L73.7331 2.32241H71.758H69.752V12.3524Z" fill="#251D61"/>
<path d="M123.142 4.01942V5.7168H124.994H126.845V4.01942V2.32204H124.994H123.142V4.01942Z" fill="#251D61"/>
<path d="M164.527 3.46428C163.879 5.96406 159.867 22.0737 159.867 22.228C159.867 22.3206 160.824 22.3823 161.997 22.3823H164.095L164.373 20.7467L164.651 19.1419L166.934 19.0493C169.496 18.9567 169.589 19.0184 169.897 21.0553L170.082 22.3823H172.243C173.415 22.3823 174.372 22.2897 174.372 22.1354C174.372 21.9194 170.484 6.39612 169.712 3.46428L169.403 2.32241H167.12H164.836L164.527 3.46428ZM167.86 10.9636C168.231 12.5684 168.508 14.0497 168.508 14.2658C168.508 14.5435 168.045 14.667 167.12 14.667C165.515 14.667 165.546 14.7287 166.194 11.5191C166.873 8.2478 166.996 7.78488 167.12 7.93919C167.181 8.00091 167.521 9.35881 167.86 10.9636Z" fill="#251D61"/>
<path d="M224.06 4.08113V5.87109L225.911 5.77851L227.763 5.65506V3.98855V2.32203H225.911H224.06V4.08113Z" fill="#251D61"/>
<path d="M245.199 3.55677C243.811 4.63692 243.656 4.91467 243.502 6.24171C243.379 7.47617 243.224 7.75392 242.669 7.81564C242.021 7.90823 241.959 8.0934 241.959 9.72905C241.959 11.3647 242.021 11.5499 242.669 11.6425C243.317 11.735 243.348 11.8585 243.502 16.2099C243.595 19.0801 243.811 20.9317 244.058 21.3947C244.644 22.4131 245.848 22.7834 247.761 22.5365C249.273 22.3514 249.397 22.2588 249.242 21.6724C249.15 21.3021 249.057 20.438 249.057 19.759C249.057 18.5863 248.995 18.4937 248.224 18.5245H247.36L247.267 15.0063L247.175 11.4881L248.131 11.6733L249.057 11.8585V9.88336V7.87737H248.131H247.205V5.09984C247.205 3.55677 247.113 2.32231 246.989 2.35318C246.835 2.35318 246.064 2.90868 245.199 3.55677Z" fill="#251D61"/>
<path d="M296.739 3.58812C295.35 4.6374 295.195 4.91516 295.041 6.2422C294.918 7.47665 294.763 7.75441 294.208 7.81613C293.56 7.90871 293.498 8.09388 293.498 9.72954C293.498 11.3652 293.56 11.5504 294.208 11.6429C294.856 11.7355 294.887 11.859 295.041 16.2104C295.134 19.0805 295.35 20.9322 295.597 21.3951C296.183 22.4136 297.387 22.7839 299.3 22.537C300.812 22.3518 300.936 22.2593 300.781 21.6729C300.689 21.3026 300.596 20.4384 300.596 19.7595C300.596 18.5868 300.534 18.4942 299.763 18.525C299.053 18.525 298.899 18.3707 298.683 17.2906C298.528 16.6116 298.467 15.0686 298.498 13.8958L298.59 11.7355L299.609 11.6429L300.596 11.5504V9.72954V7.90871L299.609 7.81613L298.59 7.72354L298.498 5.56325C298.374 2.13763 298.467 2.26108 296.739 3.58812Z" fill="#251D61"/>
<path d="M309.239 5.34731C309.239 7.01382 309.146 8.49517 309.023 8.58776C308.93 8.7112 308.498 8.52603 308.128 8.1557C307.294 7.3533 305.535 7.29158 304.455 8.00139C304.023 8.27914 303.375 9.08154 303.005 9.82221C302.388 10.9332 302.295 11.5813 302.295 14.6675C302.295 18.7412 302.82 20.6237 304.332 21.9199C305.69 23.0309 306.893 22.9383 308.22 21.6113C309.3 20.5311 309.578 20.346 309.517 20.7471C309.3 22.1668 309.517 22.3828 311.245 22.3828H312.942V12.3528V2.32289H311.09H309.239V5.34731ZM308.714 12.8158C309.146 13.6182 309.239 14.2971 309.115 15.5007C308.868 17.5376 308.683 18.0005 307.912 18.4325C307.356 18.7103 307.171 18.6177 306.523 17.9079C305.844 17.1055 305.782 16.7969 305.906 14.8218C305.967 13.5256 306.183 12.3837 306.43 12.0751C307.109 11.2727 308.097 11.6122 308.714 12.8158Z" fill="#251D61"/>
<path d="M135.178 7.63057C134.746 7.78488 134.036 8.34039 133.573 8.89589L132.74 9.88346L132.709 8.86503V7.87747H131.012H129.314V15.1299V22.3823H131.135H132.987L133.08 17.5679C133.172 12.9696 133.203 12.7227 133.882 12.1981C134.283 11.8586 134.777 11.6734 135.024 11.7969C135.456 11.9512 136.166 13.988 136.073 14.7596C136.042 14.9447 136.042 16.7655 136.073 18.7407L136.104 22.3823H137.801H139.499L139.53 17.3519C139.56 14.6053 139.53 11.8586 139.499 11.2722C139.437 10.1303 138.727 8.30953 138.203 8.00091C137.493 7.56885 135.888 7.38368 135.178 7.63057Z" fill="#251D61"/>
<path d="M178.415 7.5997C176.255 8.03176 174.99 10.5315 175.576 13.1548C175.977 14.9447 176.934 15.8088 179.372 16.5495C181.779 17.2593 182.489 18.0309 181.594 19.0184C180.792 19.9134 179.681 19.7591 179.063 18.6789C178.693 18.0617 178.354 17.8148 177.922 17.9074C177.582 17.9691 176.78 18.1234 176.132 18.216C175.082 18.3703 174.99 18.4938 175.175 19.0801C176.008 21.7651 177.088 22.5366 180.113 22.5366C181.903 22.5366 182.52 22.4132 183.23 21.8885C184.526 20.9318 185.174 19.5739 185.205 17.8148C185.297 14.7595 184.341 13.6794 180.853 12.8461C179.403 12.4758 178.817 12.1981 178.755 11.7969C178.477 10.439 180.514 9.76 181.193 10.9945C181.501 11.5808 181.717 11.6425 183.075 11.4882C183.94 11.3648 184.711 11.2105 184.804 11.1179C185.112 10.8401 183.847 8.52554 183.168 8.06262C182.366 7.53798 179.928 7.29109 178.415 7.5997Z" fill="#251D61"/>
<path d="M87.5283 8.12441C85.6458 9.42059 84.8125 11.5809 84.8125 15.3151C84.8125 18.0618 85.6458 20.4072 87.0654 21.58C88.7319 22.9996 92.1575 22.9687 93.8549 21.5491C94.8116 20.7159 95.8301 19.0493 95.5523 18.7716C95.4597 18.679 94.6573 18.463 93.7623 18.3395C92.3736 18.1235 92.1267 18.1544 91.7563 18.679C91.2317 19.3888 89.7503 19.5123 89.2257 18.8642C89.0097 18.6173 88.7628 17.9383 88.6702 17.3211L88.485 16.2101H92.281H96.077L95.8918 14.0498C95.6758 11.6117 94.9042 9.60576 93.7006 8.49475C92.5279 7.44546 88.8862 7.22943 87.5283 8.12441ZM91.4477 11.2106C91.7255 11.5192 92.065 12.229 92.1575 12.7536L92.3736 13.7412H90.4602C88.7011 13.7412 88.5776 13.7103 88.5776 13.0005C88.5776 12.0747 89.6886 10.655 90.3984 10.655C90.7071 10.655 91.17 10.9019 91.4477 11.2106Z" fill="#251D61"/>
<path d="M104.626 7.81538C104.409 7.90796 104.317 11.241 104.317 17.9379V27.937H106.014H107.712L107.743 24.7583C107.773 23.03 107.773 21.5178 107.743 21.3944C107.743 21.2709 108.236 21.5178 108.854 21.919C110.458 23.03 111.569 22.9375 112.958 21.5178C114.409 20.0674 114.964 17.8145 114.748 14.0494C114.47 9.66706 113.236 7.56849 110.86 7.56849C109.779 7.56849 109.347 7.75365 108.576 8.49433C107.496 9.57448 107.28 9.6362 107.496 8.80294C107.588 8.46347 107.526 8.09313 107.341 8.00054C107.002 7.78452 105.119 7.66107 104.626 7.81538ZM110.613 12.2594C110.952 12.7223 111.106 13.6482 111.106 14.9752C111.106 17.9996 109.872 19.2958 108.452 17.7219C108.02 17.259 107.897 16.6109 107.897 14.9752C107.897 13.3396 108.02 12.6915 108.452 12.2286C109.224 11.3953 110.026 11.3953 110.613 12.2594Z" fill="#251D61"/>
<path d="M144.282 8.15543C142.585 9.26644 141.844 11.0564 141.721 14.2969C141.567 17.8459 141.999 19.605 143.48 21.1481C145.887 23.6787 150.424 22.9689 152.029 19.8519C152.615 18.71 152.399 18.494 150.424 18.278C149.128 18.1237 148.819 18.1854 148.51 18.71C148.078 19.4198 146.535 19.5124 146.011 18.8643C145.795 18.6174 145.548 17.9385 145.455 17.3213L145.27 16.2103H149.066H152.862L152.677 14.05C152.461 11.6119 151.689 9.60592 150.486 8.49491C149.776 7.84682 149.282 7.72337 147.43 7.63079C145.609 7.56907 145.023 7.66165 144.282 8.15543ZM148.233 11.2107C148.51 11.5193 148.85 12.2291 148.942 12.7538L149.159 13.7413H147.245C145.486 13.7413 145.363 13.7105 145.363 13.0007C145.363 12.0748 146.474 10.6552 147.183 10.6552C147.492 10.6552 147.955 10.9021 148.233 11.2107Z" fill="#251D61"/>
<path d="M188.846 8.03173C187.118 8.98843 186.439 12.5992 187.612 14.5435C188.198 15.5002 189.001 15.9322 192.118 16.8889C193.198 17.2284 193.352 17.4136 193.352 18.1851C193.352 18.6789 193.136 19.2036 192.858 19.3887C192.118 19.8516 190.883 19.4196 190.482 18.5246C190.173 17.8765 189.988 17.7839 189.124 17.9382C186.408 18.4012 186.316 18.4937 187.211 20.4071C187.828 21.7033 189.032 22.3823 191.161 22.5983C193.568 22.8452 195.482 21.9194 196.284 20.1603C197.303 17.9382 196.932 15.2842 195.482 13.988C195.142 13.6794 193.969 13.2473 192.889 13.0004C190.698 12.4758 189.957 11.8585 190.451 10.9327C190.852 10.1303 192.118 10.192 192.704 10.9944C193.105 11.5808 193.352 11.6425 194.772 11.4882C195.636 11.3648 196.438 11.2413 196.5 11.1487C196.747 10.9018 195.358 8.52551 194.679 8.06259C193.784 7.4145 189.988 7.4145 188.846 8.03173Z" fill="#251D61"/>
<path d="M201.284 8.18596C199.402 9.32783 198.383 11.8276 198.414 15.2224C198.445 20.0985 201.068 23.1537 204.679 22.5674C206.5 22.2588 207.673 21.3021 208.599 19.3269C210.296 15.6544 209.308 9.75989 206.716 8.18596C205.327 7.3527 202.673 7.3527 201.284 8.18596ZM205.111 12.0745C206.315 13.8953 205.883 18.0925 204.432 18.7406C203.784 19.0492 203.568 18.9874 203.013 18.4628C201.84 17.2592 201.655 14.1113 202.673 12.1054C203.229 10.9943 204.401 10.9635 205.111 12.0745Z" fill="#251D61"/>
<path d="M213.691 8.15536C213.135 8.49484 212.394 9.42068 211.901 10.3774C211.222 11.7661 211.098 12.4142 211.098 14.7597C211.098 18.1853 211.53 19.6975 212.95 21.1789C214.802 23.1231 218.381 23.1849 220.233 21.3332C221.097 20.4382 222.486 17.599 222.147 17.2903C222.085 17.2286 221.252 17.0743 220.326 16.9509C218.69 16.7657 218.659 16.7657 218.32 17.6915C217.857 18.926 216.591 19.2963 215.727 18.5248C214.215 17.136 214.308 12.5377 215.851 11.5193C216.622 10.9946 217.61 11.2724 218.104 12.1365C218.598 12.9697 218.628 13.0006 220.264 12.692C221.375 12.5068 221.9 12.2599 221.9 11.9205C221.9 10.9638 220.542 8.71087 219.616 8.15536C218.289 7.35297 215.018 7.35297 213.691 8.15536Z" fill="#251D61"/>
<path d="M232.423 7.97027C231.436 8.46405 230.602 9.66764 230.355 10.8404C230.201 11.7354 230.232 11.8279 231.158 12.0131C232.855 12.3526 233.935 12.2291 233.935 11.7354C233.935 11.2107 234.861 10.6552 235.787 10.6552C236.589 10.6552 237.268 11.9822 236.775 12.5995C236.559 12.8464 235.818 13.2167 235.108 13.4327C230.818 14.7598 229.923 15.6548 229.923 18.5249C229.923 21.827 232.331 23.4936 235.324 22.2282C235.941 21.9813 236.497 21.5801 236.589 21.3024C236.867 20.6234 237.268 20.7469 237.392 21.5184C237.484 22.1357 237.7 22.2282 239.182 22.3208L240.879 22.4134L240.787 17.5373C240.694 11.5193 240.324 9.60592 239.182 8.43319C238.349 7.63079 238.133 7.56907 235.725 7.56907C234.306 7.56907 232.824 7.75424 232.423 7.97027ZM237.021 16.5189C237.021 17.8768 236.219 19.2655 235.324 19.4816C234.244 19.7593 233.565 19.1112 233.688 17.9385C233.75 17.1978 234.059 16.8275 235.015 16.3028C236.682 15.377 237.021 15.4079 237.021 16.5189Z" fill="#251D61"/>
<path d="M253.347 8.27865C252.761 8.64899 251.958 9.63655 251.526 10.5007C250.847 11.8277 250.755 12.4449 250.755 15.1299C250.755 17.7222 250.878 18.4321 251.496 19.6974C252.545 21.8577 253.687 22.5366 256.156 22.5366C257.421 22.5058 258.501 22.3206 259.149 21.9811C260.229 21.4256 261.556 19.5122 261.31 18.8641C261.217 18.6481 260.476 18.3703 259.674 18.2469C258.439 18.0926 258.1 18.1543 257.544 18.6789C256.279 19.8517 254.643 19.0801 254.52 17.2593L254.458 16.3643H258.131H261.772L261.649 14.0189C261.495 11.2105 260.538 9.01933 259.118 8.15521C257.699 7.29109 254.736 7.35281 253.347 8.27865ZM256.958 10.9019C257.452 11.2413 258.007 12.3832 258.007 13.093C258.007 13.6794 257.822 13.7411 256.125 13.7411H254.242L254.427 12.7536C254.767 11.087 255.94 10.2229 256.958 10.9019Z" fill="#251D61"/>
<path d="M265.045 8.27856C263.903 9.23527 263.563 10.0685 263.563 11.9819C263.563 14.4817 264.397 15.531 267.082 16.426C270.106 17.4444 270.631 18.0308 269.55 19.1109C268.779 19.9133 267.606 19.7281 267.051 18.7097C266.588 17.9073 266.403 17.8456 265.292 17.9999C263.039 18.2777 262.946 18.3702 263.409 19.6973C263.625 20.3454 264.057 21.1478 264.366 21.4872C265.538 22.7834 269.334 23.0303 271.248 21.8884C272.606 21.086 273.254 19.6973 273.254 17.753C273.254 14.8212 272.019 13.4016 269.118 12.9386C267.39 12.6609 266.372 11.8276 266.835 11.0561C267.328 10.2228 268.686 10.1611 269.18 10.9326C269.581 11.6116 270.939 11.7659 272.421 11.3338L273.1 11.1178L272.544 9.85249C271.68 7.96995 270.939 7.56875 268.193 7.56875C266.248 7.56875 265.754 7.6922 265.045 8.27856Z" fill="#251D61"/>
<path d="M123.142 15.1299V22.3823H124.994H126.845V15.1299V7.87747H124.994H123.142V15.1299Z" fill="#251D61"/>
<path d="M224.06 15.1299V22.3823H225.911H227.763V15.1299V7.87747H225.911H224.06V15.1299Z" fill="#251D61"/>
<path d="M315.102 19.4505V22.3823H317.262H319.422V19.4505V16.5187H317.262H315.102V19.4505Z" fill="#251D61"/>
<path d="M224.523 29.0795C223.196 29.3264 222.949 29.4807 223.443 29.7893C223.782 30.0054 223.659 30.8695 222.548 34.9432C220.943 40.776 221.005 40.4365 221.683 40.4365C222.085 40.4365 222.393 39.9736 222.794 38.8317C223.443 36.9492 224.739 34.9432 225.819 34.2642C227.146 33.4001 227.269 34.0482 226.467 37.0726C225.634 40.0353 225.665 40.5908 226.529 40.5908C227.208 40.5908 228.998 39.1403 228.967 38.6466C228.967 38.4305 228.751 38.5848 228.473 38.986C228.226 39.3564 227.794 39.665 227.547 39.665C227.053 39.665 227.023 39.7267 228.01 36.2702C228.782 33.4618 228.596 32.9372 226.837 33.1841C226.59 33.2149 225.726 33.863 224.924 34.6654L223.443 36.0851L224.06 33.9248C225.017 30.6843 225.387 29.1721 225.263 29.0487C225.202 29.0178 224.862 29.0178 224.523 29.0795Z" fill="#302F38"/>
<path d="M282.604 29.1716C281.277 29.4185 280.722 29.7889 281.709 29.7889C282.08 29.7889 282.388 29.8815 282.388 30.0358C282.388 30.1592 281.833 32.2578 281.154 34.7267C280.475 37.1956 279.919 39.5102 279.919 39.8806C279.919 41.2385 282.234 40.5286 283.036 38.9547C283.345 38.3683 283.252 38.3992 282.45 39.1399C281.925 39.6645 281.463 39.8806 281.339 39.7263C281.246 39.5411 281.771 37.0722 282.574 34.2638C283.345 31.4245 283.931 29.0791 283.87 29.0482C283.808 29.0173 283.252 29.0791 282.604 29.1716Z" fill="#302F38"/>
<path d="M79.3188 30.2211C79.3188 31.0852 80.0595 31.4864 80.5533 30.8692C81.0471 30.2519 80.7076 29.4804 79.9361 29.4804C79.504 29.4804 79.3188 29.6964 79.3188 30.2211Z" fill="#302F38"/>
<path d="M147.739 29.6654C147.369 30.0358 147.492 30.9616 147.924 31.1159C148.573 31.3628 149.128 30.869 149.005 30.2209C148.912 29.6346 148.11 29.2951 147.739 29.6654Z" fill="#302F38"/>
<path d="M214.091 29.6654C213.721 30.0358 213.844 30.9616 214.277 31.1159C214.925 31.3628 215.48 30.869 215.357 30.2209C215.264 29.6346 214.462 29.2951 214.091 29.6654Z" fill="#302F38"/>
<path d="M268.377 30.0053C268.254 30.283 268.377 30.7151 268.655 30.9928C269.056 31.4249 269.179 31.4249 269.581 30.9928C270.167 30.4065 269.889 29.4806 269.118 29.4806C268.809 29.4806 268.47 29.7275 268.377 30.0053Z" fill="#302F38"/>
<path d="M115.551 32.1965C115.026 32.6595 114.347 33.1841 114.008 33.4001C113.452 33.7396 113.452 33.7705 114.131 33.7705C114.501 33.8013 114.81 33.8939 114.81 33.9865C114.81 34.11 114.44 35.4987 114.008 37.1035C113.452 39.2021 113.298 40.1279 113.545 40.3748C114.038 40.8686 115.396 40.2822 116.014 39.3564C116.476 38.5849 116.476 38.5849 115.859 39.1095C114.594 40.2205 114.532 39.8502 115.489 36.332C116.106 34.1408 116.291 33.8013 116.878 33.8013C117.248 33.8013 117.649 33.647 117.742 33.4927C117.834 33.3076 117.587 33.1841 117.155 33.1841C116.446 33.1841 116.415 33.1224 116.662 32.2583C117.001 31.1164 116.785 31.1164 115.551 32.1965Z" fill="#302F38"/>
<path d="M159.374 32.1963C158.849 32.6592 158.17 33.1838 157.831 33.3999C157.275 33.7393 157.275 33.7702 157.954 33.7702C158.479 33.801 158.633 33.9245 158.509 34.3257C157.831 36.5786 157.09 39.603 157.09 40.0351C157.09 40.8683 158.293 40.714 159.312 39.7573C159.775 39.2944 160.176 38.8006 160.176 38.6154C160.176 38.4303 159.96 38.6154 159.682 38.9858C159.127 39.819 158.201 39.9116 158.448 39.1092C158.54 38.8315 158.911 37.5044 159.281 36.1774C159.867 34.0788 160.053 33.801 160.701 33.801C161.071 33.801 161.41 33.6467 161.41 33.4924C161.41 33.3073 161.133 33.1838 160.762 33.1838C160.207 33.1838 160.145 33.0604 160.33 32.258C160.454 31.7333 160.485 31.3321 160.423 31.3321C160.361 31.3321 159.898 31.7333 159.374 32.1963Z" fill="#302F38"/>
<path d="M219.431 31.61C219.431 31.7643 218.782 32.3198 217.98 32.8444C216.869 33.5851 216.684 33.8011 217.209 33.8011C218.042 33.8011 218.042 33.9554 217.116 37.3193C216.715 38.8315 216.437 40.1894 216.53 40.3129C216.993 41.0536 218.813 40.1894 219.461 38.955C219.801 38.3069 219.801 38.3069 218.999 39.0167C218.566 39.4488 218.104 39.6957 218.011 39.5722C217.888 39.4488 218.134 38.1526 218.566 36.6712C219.276 34.2023 219.4 33.9554 220.14 33.8628C221.19 33.7394 221.221 33.1839 220.202 33.1839C219.523 33.1839 219.461 33.1222 219.739 32.3815C220.11 31.3939 220.11 31.3322 219.739 31.3322C219.585 31.3322 219.431 31.4557 219.431 31.61Z" fill="#302F38"/>
<path d="M71.7271 33.2145C70.4309 33.5848 68.3323 35.8994 67.8694 37.5042C67.3756 39.1399 67.9311 40.3743 69.1964 40.5286C70.2457 40.6521 71.7888 39.8497 72.2517 38.9547L72.6221 38.2757L71.8197 38.9855C71.295 39.4793 70.7704 39.6645 70.184 39.6028C68.9496 39.4793 68.857 38.2449 69.9063 36.0846C70.8012 34.2329 71.7888 33.3996 72.8998 33.5539C73.8565 33.6774 74.0109 35.1896 73.2393 36.7944C72.8998 37.4425 72.6529 38.5226 72.6529 39.2016C72.6838 40.8681 73.5788 41.0224 74.8441 39.6028C75.3688 39.0473 75.4613 38.8621 75.0601 39.1707C74.6898 39.5102 74.2886 39.6645 74.1652 39.5411C74.0417 39.4176 74.2886 37.9363 74.7207 36.2389L75.5231 33.1219L74.7207 33.2762C74.2886 33.3688 73.6714 33.3379 73.3319 33.2145C72.9616 33.0602 72.2517 33.091 71.7271 33.2145Z" fill="#302F38"/>
<path d="M85.8617 34.2951C85.0901 35.1284 84.5655 35.4987 84.6581 35.1592C84.7507 34.8197 84.905 34.2642 85.0284 33.863C85.2136 33.2767 85.121 33.1841 84.3495 33.2149C83.8865 33.2149 83.2076 33.3384 82.8681 33.4927C82.2817 33.7396 82.2817 33.7705 82.9607 33.7705C83.8248 33.8013 83.8248 34.0173 82.8681 37.2269C81.9423 40.3439 81.9423 40.5908 82.6521 40.5908C83.0533 40.5908 83.3619 40.2205 83.6088 39.2638C84.1026 37.6281 85.3988 35.2209 86.1703 34.5111C86.6641 34.0791 86.8184 34.0482 87.0344 34.3877C87.3739 34.974 88.2689 34.5728 88.2689 33.8322C88.2689 32.6286 87.3122 32.8137 85.8617 34.2951Z" fill="#302F38"/>
<path d="M93.5153 33.0909C93.2684 33.1835 92.682 33.5229 92.2191 33.8316C91.4167 34.4179 91.4167 34.4179 91.571 33.8007C91.7253 33.2452 91.571 33.1835 90.3983 33.1835C89.1947 33.1835 89.133 33.2143 89.6576 33.6155C90.2131 34.0167 90.1822 34.171 89.0404 38.4608C88.2688 41.3926 87.6825 43.09 87.2813 43.4295C86.664 43.9541 86.7258 43.985 88.6083 43.9541C90.1205 43.9541 90.4291 43.8924 89.9045 43.6763C89.1021 43.3677 89.0712 43.09 89.5033 41.4852C89.781 40.4668 89.8736 40.405 90.8612 40.5285C94.5954 40.9605 98.3297 34.3562 95.0275 33.2143C94.472 33.0292 94.0399 32.8749 94.0091 32.9057C93.9782 32.9057 93.7622 32.9983 93.5153 33.0909ZM94.5646 34.2945C95.0892 35.6524 93.8856 38.8311 92.4969 39.7569C91.4784 40.405 90.46 40.4359 90.2131 39.7878C89.9354 39.078 91.0772 35.6832 91.9105 34.6648C92.7438 33.6773 94.256 33.4612 94.5646 34.2945Z" fill="#302F38"/>
<path d="M101.014 33.3688C97.8973 34.4489 96.1382 39.0473 98.4219 40.2508C100.49 41.3619 103.576 39.6953 104.779 36.7944C105.86 34.1712 103.915 32.3812 101.014 33.3688ZM103.391 33.9551C104.193 34.9118 102.928 38.7695 101.477 39.7879C100.027 40.8064 98.7614 40.1274 98.7614 38.3683C98.7614 37.2882 100.15 34.5724 100.953 33.986C101.848 33.3688 102.897 33.3379 103.391 33.9551Z" fill="#302F38"/>
<path d="M111.508 33.2147C111.137 33.3381 110.489 33.9862 110.026 34.6343L109.193 35.8071L109.409 34.48C109.594 33.2764 109.563 33.1838 108.885 33.2147C108.514 33.2147 107.897 33.3381 107.588 33.4616C107.002 33.6776 107.002 33.7085 107.65 33.8628L108.298 34.048L107.588 36.6094C107.187 38.0291 106.786 39.5104 106.662 39.9116C106.446 40.5597 106.508 40.6214 107.125 40.5288C107.65 40.4671 107.928 40.0351 108.36 38.7697C108.946 37.1032 110.674 34.1097 111.076 34.1097C111.199 34.1097 111.446 34.264 111.631 34.4492C112.125 34.9429 112.958 34.5726 112.958 33.8319C112.958 33.1221 112.403 32.8752 111.508 33.2147Z" fill="#302F38"/>
<path d="M125.642 33.5547C123.914 34.4805 122.494 36.4248 122.309 38.1839C122 40.7762 124.037 41.4552 126.198 39.5109L127.401 38.3999L127.37 39.4183C127.278 40.838 128.265 40.9305 129.469 39.6035L130.395 38.6159L129.531 39.1714C129.037 39.4801 128.605 39.6652 128.543 39.6035C128.481 39.5418 128.759 38.1839 129.16 36.5791C129.592 34.9743 129.932 33.5547 129.932 33.4004C129.932 33.2769 129.561 33.2152 129.098 33.2461C128.605 33.2769 127.957 33.1843 127.586 33.0917C127.185 32.9374 126.475 33.1226 125.642 33.5547ZM128.173 35.0052C128.049 37.5358 125.796 40.159 124.253 39.5726C123.204 39.1714 123.883 36.3322 125.488 34.4497C126.136 33.6473 126.506 33.4929 127.278 33.5547C128.204 33.6473 128.234 33.709 128.173 35.0052Z" fill="#302F38"/>
<path d="M134.098 33.1225C133.327 33.2769 132.71 34.0484 132.71 34.8508C132.71 35.2211 133.203 36.2395 133.821 37.1345C134.839 38.585 134.932 38.8628 134.592 39.5417C134.098 40.6836 132.71 40.4676 132.061 39.1405C131.475 37.9986 131.167 38.1221 131.167 39.48C131.167 40.4058 131.197 40.4367 132.802 40.5293C134.098 40.591 134.623 40.4676 135.271 39.9738C136.382 39.0788 136.32 38.2147 134.993 36.2704C133.697 34.3879 133.697 33.6472 135.024 33.6472C135.734 33.6472 136.043 33.8632 136.413 34.573L136.876 35.4989L136.968 34.4804C137.03 33.8941 137.03 33.4003 136.968 33.3386C136.752 33.1534 134.654 32.9991 134.098 33.1225Z" fill="#302F38"/>
<path d="M140.795 33.2143C140.425 33.3686 139.962 33.8315 139.746 34.2635C139.437 34.9425 139.53 35.2511 140.517 36.8559C141.783 38.8619 141.875 39.3865 141.196 39.9729C140.456 40.5901 139.19 40.0655 138.758 39.0162C138.357 38.0595 138.357 38.0595 138.172 38.7693C137.709 40.4358 137.801 40.4975 139.993 40.4667C141.628 40.4358 142.122 40.3124 142.462 39.8186C143.171 38.8619 142.955 37.7817 141.813 36.0844C140.61 34.3561 140.641 33.492 141.844 33.492C142.338 33.492 142.77 33.8006 143.171 34.4487L143.758 35.3746L143.912 34.3561C143.974 33.8006 144.036 33.3068 144.005 33.3068C143.758 33.0908 141.351 33.0291 140.795 33.2143Z" fill="#302F38"/>
<path d="M152.461 33.2455C151.751 33.4924 151.227 34.6342 151.474 35.344C151.566 35.5909 152.029 36.3933 152.523 37.1031C153.48 38.5228 153.603 39.3869 152.924 39.9732C152.214 40.5596 151.042 40.0967 150.609 39.0474C150.147 37.9364 150.147 37.9364 149.869 39.356L149.684 40.4362L151.504 40.5288C154.714 40.6522 155.671 38.8314 153.726 36.239C152.523 34.6034 152.461 33.4924 153.51 33.4924C154.375 33.4924 155.239 34.2022 155.27 34.9737C155.3 35.3132 155.393 35.1897 155.547 34.7268C156.041 33.1837 155.948 33.0294 154.467 33.0294C153.696 33.0294 152.801 33.122 152.461 33.2455Z" fill="#302F38"/>
<path d="M165.546 33.2144C165.022 33.3687 164.003 34.1094 163.324 34.8501C160.948 37.4115 160.948 40.3434 163.324 40.5285C164.281 40.6211 164.62 40.436 165.608 39.4793L166.75 38.3065L166.565 39.2941C166.41 40.0656 166.472 40.3434 166.842 40.4977C167.46 40.7137 168.787 40.0039 169.188 39.2015C169.527 38.5843 169.527 38.5843 168.848 39.1706C168.509 39.5101 168.108 39.6644 167.984 39.541C167.799 39.3558 168.818 34.634 169.342 33.2453C169.466 32.9675 169.311 32.9366 168.694 33.1835C168.231 33.3378 167.583 33.3687 167.213 33.2144C166.812 33.091 166.071 33.091 165.546 33.2144ZM167.521 34.634C167.614 35.7142 166.503 38.2448 165.485 39.1398C165.114 39.4793 164.528 39.6644 163.972 39.6027C163.17 39.5101 163.108 39.4175 163.17 38.1831C163.232 36.7635 164.435 34.3563 165.361 33.8008C165.639 33.6465 166.225 33.523 166.657 33.5847C167.275 33.6465 167.46 33.8316 167.521 34.634Z" fill="#302F38"/>
<path d="M175.669 33.431C174.681 33.9865 172.953 35.8999 173.231 36.1468C173.293 36.2394 173.694 35.869 174.064 35.3752C174.435 34.8506 175.021 34.2642 175.36 34.0791C176.502 33.4618 176.626 34.1716 175.823 37.0726C175.021 40.0353 175.052 40.5908 175.916 40.5908C176.564 40.5908 178.385 39.1712 178.385 38.6466C178.385 38.4614 178.045 38.6466 177.613 39.0478C177.181 39.4489 176.749 39.665 176.626 39.5724C176.533 39.4489 176.749 38.3379 177.089 37.0726C177.922 34.2642 177.922 33.6161 177.212 33.2149C176.78 32.9989 176.379 33.0606 175.669 33.431Z" fill="#302F38"/>
<path d="M183.322 33.2767C180.946 34.0482 179.526 35.8382 179.526 37.9985C179.526 39.7576 180.329 40.5908 181.995 40.5908C183.106 40.5908 185.174 39.5415 185.174 38.986C185.174 38.8317 184.804 38.986 184.372 39.3255C183.291 40.1896 181.934 40.1588 181.347 39.2946C180.761 38.4922 180.761 38.0602 181.162 36.5171C181.625 34.8815 183.045 33.4927 184.217 33.4927C185.081 33.4927 185.174 33.5544 184.989 34.2642C184.835 34.9123 184.896 35.0358 185.452 35.0358C186.285 35.0358 186.655 34.2025 186.069 33.647C185.39 33.0298 184.495 32.9063 183.322 33.2767Z" fill="#302F38"/>
<path d="M191.192 33.3689C188.168 34.3873 186.285 38.3067 187.983 40.0041C188.816 40.8373 190.853 40.683 192.272 39.6646C193.538 38.7696 193.26 38.5227 191.933 39.3251C191.347 39.6954 190.668 39.9732 190.39 39.9732C189.649 39.9732 188.816 38.8931 188.939 38.0907C189.001 37.5352 189.341 37.3191 190.513 37.0105C192.365 36.5476 193.445 35.8378 193.815 34.8811C194.402 33.3071 193.26 32.659 191.192 33.3689ZM192.89 34.0478C192.89 34.3564 192.704 34.8811 192.458 35.2205C191.964 35.9304 189.587 37.1031 189.31 36.7945C189.094 36.5784 189.865 35.2514 190.822 34.1713C191.593 33.338 192.89 33.2454 192.89 34.0478Z" fill="#302F38"/>
<path d="M209.061 33.3383C208.937 33.5851 209.03 34.0172 209.246 34.2641C209.801 34.9122 209.431 35.8998 208.042 37.5663C206.746 39.1402 206.468 39.0476 206.468 37.0725C206.468 35.5603 206.098 33.1839 205.882 33.1839C205.758 33.1839 204.987 34.295 204.154 35.622C202.425 38.3687 202.364 38.3687 201.993 34.943C201.808 33.2457 201.777 33.1839 200.882 33.1839C200.018 33.1839 199.648 33.6469 200.327 33.8629C200.481 33.9246 200.79 35.4677 200.975 37.2885C201.16 39.1093 201.407 40.5907 201.5 40.5907C201.592 40.5907 202.456 39.2945 203.382 37.7206L205.08 34.8813L205.326 37.6589C205.45 39.1711 205.666 40.4981 205.758 40.5907C206.191 41.0227 210.48 35.1282 210.48 34.0789C210.48 33.2765 209.308 32.6902 209.061 33.3383Z" fill="#302F38"/>
<path d="M237.022 33.2453C236.682 33.3687 236.25 33.8316 236.034 34.2637C235.725 34.9427 235.818 35.2513 236.806 36.8561C238.04 38.8621 238.164 39.3867 237.515 39.9731C236.744 40.5903 235.664 40.22 235.139 39.1089C234.645 38.1522 234.614 38.1522 234.429 38.8003C233.997 40.4051 234.09 40.4977 236.281 40.4669C237.917 40.436 238.41 40.3125 238.75 39.8188C239.46 38.8621 239.244 37.7819 238.102 36.0845C236.898 34.3563 236.929 33.4922 238.133 33.4922C238.657 33.4922 239.089 33.8008 239.491 34.4797C239.984 35.2821 240.108 35.3747 240.108 34.8809C240.108 34.5415 240.2 33.986 240.293 33.6465C240.416 33.091 240.293 33.0293 239.059 33.0293C238.287 33.0293 237.361 33.1218 237.022 33.2453Z" fill="#302F38"/>
<path d="M246.28 33.0913C246.034 33.1839 245.447 33.5233 244.984 33.832C244.182 34.4183 244.182 34.4183 244.336 33.8011C244.49 33.2764 244.336 33.1839 243.503 33.1839C242.7 33.1839 242.577 33.2764 242.731 33.7702C243.009 34.6961 240.756 42.8126 240.016 43.4298C239.429 43.9545 239.491 43.9854 241.219 43.9854C242.608 43.9545 242.917 43.8928 242.515 43.6459C241.867 43.2755 241.836 42.9978 242.268 41.4856C242.546 40.4672 242.639 40.4054 243.626 40.5289C247.361 40.9609 251.095 34.3566 247.793 33.2147C247.237 33.0296 246.805 32.8752 246.774 32.9061C246.743 32.9061 246.527 32.9987 246.28 33.0913ZM247.33 34.2949C247.854 35.6528 246.651 38.8315 245.262 39.7573C244.244 40.4054 243.225 40.4363 242.978 39.7882C242.7 39.0784 243.842 35.6836 244.676 34.6652C245.509 33.6776 247.021 33.4616 247.33 34.2949Z" fill="#302F38"/>
<path d="M254.181 33.3385C251.064 34.4495 249.212 38.2763 250.941 40.0046C251.774 40.8378 253.811 40.6835 255.23 39.6651C256.527 38.7392 256.218 38.5849 254.706 39.4182C253.626 40.0046 253.317 40.0354 252.638 39.7268C251.99 39.449 251.836 39.1404 251.836 38.2763C251.836 37.4739 251.959 37.1962 252.329 37.1962C253.379 37.1962 255.261 36.4555 256.002 35.7765C256.928 34.9124 257.02 33.6471 256.187 33.1842C255.477 32.8138 255.662 32.8138 254.181 33.3385ZM255.755 33.9866C256.033 34.8198 252.854 37.3813 252.268 36.795C252.021 36.5481 252.7 35.3445 253.626 34.3261C254.428 33.4619 255.539 33.3076 255.755 33.9866Z" fill="#302F38"/>
<path d="M261.618 33.3378C258.532 34.418 256.989 38.0596 258.81 39.8804C259.489 40.5594 259.797 40.652 261.001 40.4977C261.988 40.4051 262.637 40.0965 263.223 39.5101L264.025 38.6768L262.945 39.3249C260.847 40.5594 259.55 40.0039 259.55 37.8127C259.55 36.1462 261.155 33.6464 262.328 33.4921C263.285 33.3378 263.562 33.523 263.562 34.2637C263.562 34.8192 263.717 35.0352 264.149 35.0352C264.889 35.0352 265.167 34.3254 264.704 33.7082C264.149 33.0292 262.914 32.8749 261.618 33.3378Z" fill="#302F38"/>
<path d="M274.364 33.3691C272.975 33.9863 271.988 34.9121 271.247 36.3318C270.599 37.6279 270.475 39.6648 271.031 40.2203C271.741 40.9301 273.346 40.6524 274.518 39.6339L275.598 38.6772V39.6339C275.598 40.3746 275.722 40.5906 276.185 40.5906C276.833 40.5906 278.808 39.0784 278.53 38.8007C278.469 38.7081 278.098 38.8933 277.759 39.2019C277.419 39.5105 277.049 39.6648 276.926 39.5722C276.833 39.4488 277.111 37.9674 277.543 36.3009C278.006 34.6035 278.376 33.153 278.376 33.0913C278.376 32.9987 278.098 32.9987 277.759 33.0913C277.419 33.1839 277.142 33.3999 277.142 33.5542C277.142 33.7085 276.833 33.616 276.463 33.3691C275.629 32.7827 275.722 32.7827 274.364 33.3691ZM276.555 34.0172C276.679 35.838 276.092 37.3502 274.734 38.8007C273.839 39.7574 272.389 39.9734 272.08 39.171C271.71 38.1834 272.636 35.7763 273.994 34.3258C274.92 33.3382 276.493 33.153 276.555 34.0172Z" fill="#302F38"/>
<path d="M292.881 33.2458C291.276 33.7087 290.227 34.5728 289.487 36.1159C288.283 38.5848 289.24 40.5908 291.616 40.5908C292.665 40.5908 294.733 39.5415 294.733 39.0169C294.733 38.8317 294.332 38.986 293.838 39.3255C291.307 41.1463 289.548 38.9552 290.999 35.7764C291.678 34.2951 292.665 33.4927 293.869 33.4927C294.64 33.4927 294.733 33.5853 294.548 34.2642C294.394 34.9123 294.455 35.0358 295.011 35.0358C295.844 35.0358 296.214 34.2025 295.628 33.647C294.98 33.0298 294.085 32.9063 292.881 33.2458Z" fill="#302F38"/>
<path d="M300.01 33.5542C298.282 34.48 296.862 36.4243 296.677 38.1834C296.369 40.7758 298.405 41.4547 300.566 39.5104L301.769 38.3994L301.738 39.4179C301.646 40.8375 302.633 40.9301 303.837 39.603L304.763 38.6155L303.899 39.171C303.405 39.4796 302.973 39.6647 302.911 39.603C302.849 39.5413 303.127 38.1834 303.528 36.5786C303.96 34.9738 304.3 33.5542 304.3 33.4307C304.3 33.3073 303.93 33.2456 303.467 33.2456C302.973 33.2764 302.325 33.2147 301.954 33.0913C301.553 32.937 300.874 33.1221 300.01 33.5542ZM302.633 35.1281C302.387 36.6712 301.121 38.8932 300.257 39.3561C297.85 40.6832 297.418 37.7513 299.609 34.7886C300.473 33.585 301.43 33.1221 302.263 33.5542C302.726 33.8011 302.788 34.0788 302.633 35.1281Z" fill="#302F38"/>
<path d="M307.695 33.3075C306.677 33.5236 306.491 33.647 307.016 33.7396C307.849 33.863 307.849 33.7705 306.923 37.0109C306.491 38.4614 306.152 39.881 306.152 40.1279C306.152 40.8377 307.109 40.6834 307.294 39.9736C307.541 39.0786 309.392 35.3135 309.948 34.5729C310.349 34.0791 310.472 34.0482 310.905 34.3877C311.522 34.9123 312.324 34.6037 312.324 33.8322C312.324 32.4743 310.689 32.9681 309.392 34.7272C308.559 35.869 308.466 35.7456 308.929 34.1408C309.084 33.5544 309.207 33.0606 309.145 33.0298C309.115 32.9989 308.466 33.1224 307.695 33.3075Z" fill="#302F38"/>
<path d="M315.903 33.3384C313.712 34.1099 312.015 36.2394 312.015 38.2762C312.015 39.6341 312.91 40.5908 314.175 40.5908C315.163 40.5908 317.385 39.6033 317.755 39.0169C317.971 38.6157 317.94 38.6466 316.274 39.4798C315.317 39.9736 314.977 40.0045 314.329 39.7267C313.712 39.4489 313.558 39.1403 313.558 38.2762C313.558 37.4738 313.681 37.1961 314.052 37.1961C315.101 37.1961 316.983 36.4554 317.724 35.7764C318.65 34.9123 318.742 33.647 317.909 33.1841C317.199 32.8137 317.385 32.8137 315.903 33.3384ZM317.477 33.9865C317.755 34.8197 314.576 37.3812 313.99 36.7949C313.743 36.548 314.422 35.3444 315.348 34.326C316.15 33.4618 317.261 33.3075 317.477 33.9865Z" fill="#302F38"/>
<path d="M77.9304 33.4923C77.4058 33.7084 77.4058 33.7701 77.8687 33.7701C78.5477 33.8009 78.5168 34.4182 77.7761 36.8871C77.0972 39.14 77.0046 40.1584 77.4984 40.4361C78.0848 40.8065 79.2266 40.3127 79.7821 39.4486C80.3376 38.5845 80.3376 38.5845 79.7204 39.1091C79.3809 39.4177 78.9489 39.6646 78.7328 39.6646C78.5168 39.6646 78.4242 39.4177 78.5168 39.1091C78.5785 38.8313 78.9489 37.5352 79.3192 36.2699C79.6896 35.0045 80.029 33.7701 80.0908 33.554C80.2451 33.122 78.8872 33.0911 77.9304 33.4923Z" fill="#302F38"/>
<path d="M146.165 33.462C145.579 33.678 145.579 33.7088 146.227 33.8632L146.875 34.0483L146.258 36.1469C145.27 39.5108 145.208 40.2515 145.795 40.4675C146.535 40.7452 147.708 40.1589 148.171 39.2948L148.541 38.5849L147.77 39.2948C147.369 39.6651 146.937 39.912 146.844 39.7885C146.69 39.6342 147.492 36.3012 148.264 33.8632C148.449 33.2768 148.387 33.1842 147.616 33.2151C147.153 33.2151 146.474 33.3385 146.165 33.462Z" fill="#302F38"/>
<path d="M171.595 33.492C171.07 33.6464 171.009 33.7389 171.379 33.7698C172.089 33.8007 172.058 34.4487 171.132 37.6275C170.206 40.8062 170.237 40.5902 170.947 40.5902C171.348 40.5902 171.719 40.0655 172.243 38.6459C172.644 37.5966 172.953 36.5473 172.922 36.3004C172.891 36.0844 173.076 35.3129 173.323 34.6339C173.57 33.955 173.755 33.3686 173.755 33.3069C173.755 33.1217 172.428 33.2143 171.595 33.492Z" fill="#302F38"/>
<path d="M212.486 33.4925C211.962 33.7086 211.962 33.7703 212.425 33.7703C213.104 33.8011 213.104 34.048 212.27 37.2576C211.715 39.3871 211.653 40.0351 211.962 40.3438C212.486 40.8684 213.844 40.3438 214.431 39.3562L214.924 38.5847L214.122 39.2945C213.073 40.2512 212.857 39.7883 213.412 37.844C213.659 36.9799 214.091 35.5602 214.307 34.727L214.77 33.1839L213.937 33.2148C213.474 33.2148 212.826 33.3382 212.486 33.4925Z" fill="#302F38"/>
<path d="M266.959 33.4927C266.557 33.7396 266.588 33.8013 267.051 33.8013C267.73 33.8013 267.699 34.1099 266.959 36.5788C266.619 37.6898 266.341 39.0478 266.341 39.5724C266.341 40.4365 266.465 40.5908 267.051 40.5908C267.452 40.5908 268.162 40.1588 268.687 39.6033C269.181 39.0478 269.304 38.8317 268.934 39.1403C268.255 39.6958 267.576 39.8501 267.576 39.4181C267.576 39.2946 267.915 37.9985 268.347 36.548C268.749 35.1284 269.119 33.7705 269.119 33.5544C269.119 33.1224 267.637 33.0606 266.959 33.4927Z" fill="#302F38"/>
</svg>
