<svg width="56" height="56" viewBox="0 0 56 56" fill="none" xmlns="http://www.w3.org/2000/svg">
<path opacity="0.2" d="M12.252 12.25V24.3023C12.252 32.9868 19.1983 40.1852 27.8825 40.2496C29.9608 40.2653 32.0217 39.8696 33.9464 39.0851C35.871 38.3007 37.6214 37.1431 39.0966 35.6791C40.5718 34.215 41.7426 32.4735 42.5416 30.5548C43.3406 28.6362 43.7519 26.5784 43.752 24.5V12.25C43.752 11.7859 43.5676 11.3408 43.2394 11.0126C42.9112 10.6844 42.4661 10.5 42.002 10.5H14.002C13.5378 10.5 13.0927 10.6844 12.7645 11.0126C12.4363 11.3408 12.252 11.7859 12.252 12.25Z" fill="#FA9624"/>
<path d="M12.252 12.25V24.3023C12.252 32.9868 19.1983 40.1852 27.8825 40.2496C29.9608 40.2653 32.0217 39.8696 33.9464 39.0851C35.871 38.3007 37.6214 37.1431 39.0966 35.6791C40.5718 34.215 41.7426 32.4735 42.5416 30.5548C43.3406 28.6362 43.752 26.5784 43.752 24.5V12.25C43.752 11.7859 43.5676 11.3408 43.2394 11.0126C42.9112 10.6844 42.4661 10.5 42.002 10.5H14.002C13.5378 10.5 13.0927 10.6844 12.7645 11.0126C12.4363 11.3408 12.252 11.7859 12.252 12.25Z" stroke="#FF8800" stroke-width="3" stroke-linecap="round" stroke-linejoin="round"/>
<path d="M21.002 49H35.002" stroke="#FF8800" stroke-width="3" stroke-linecap="round" stroke-linejoin="round"/>
<path d="M28 40.25V49" stroke="#FF8800" stroke-width="3" stroke-linecap="round" stroke-linejoin="round"/>
<path d="M43.3594 28H45.4997C47.3562 28 49.1367 27.2625 50.4495 25.9497C51.7622 24.637 52.4997 22.8565 52.4997 21V17.5C52.4997 17.0359 52.3153 16.5908 51.9872 16.2626C51.659 15.9344 51.2138 15.75 50.7497 15.75H43.7497" stroke="#FF8800" stroke-width="3" stroke-linecap="round" stroke-linejoin="round"/>
<path d="M12.682 28H10.4746C8.61809 28 6.83762 27.2625 5.52486 25.9497C4.21211 24.637 3.47461 22.8565 3.47461 21V17.5C3.47461 17.0359 3.65898 16.5908 3.98717 16.2626C4.31536 15.9344 4.76048 15.75 5.22461 15.75H12.2246" stroke="#FF8800" stroke-width="3" stroke-linecap="round" stroke-linejoin="round"/>
</svg>
