<svg width="56" height="56" viewBox="0 0 56 56" fill="none" xmlns="http://www.w3.org/2000/svg">
<path opacity="0.2" d="M19.252 35C25.5342 35 30.627 29.9072 30.627 23.625C30.627 17.3428 25.5342 12.25 19.252 12.25C12.9697 12.25 7.87695 17.3428 7.87695 23.625C7.87695 29.9072 12.9697 35 19.252 35Z" fill="#0F9918"/>
<path d="M19.252 35C25.5342 35 30.627 29.9072 30.627 23.625C30.627 17.3428 25.5342 12.25 19.252 12.25C12.9697 12.25 7.87695 17.3428 7.87695 23.625C7.87695 29.9072 12.9697 35 19.252 35Z" stroke="#0F9918" stroke-width="3" stroke-miterlimit="10"/>
<path d="M33.9941 12.6744C35.5587 12.2336 37.1995 12.1331 38.8062 12.3799C40.4128 12.6266 41.9479 13.2148 43.308 14.1047C44.6682 14.9947 45.8219 16.1658 46.6913 17.5392C47.5608 18.9126 48.1258 20.4563 48.3484 22.0665C48.571 23.6766 48.446 25.3158 47.9817 26.8735C47.5175 28.4313 46.7248 29.8714 45.6571 31.097C44.5894 32.3227 43.2715 33.3052 41.792 33.9786C40.3126 34.652 38.7061 35.0005 37.0806 35.0006" stroke="#0F9918" stroke-width="3" stroke-linecap="round" stroke-linejoin="round"/>
<path d="M3.50195 43.1805C5.2785 40.6535 7.63697 38.5911 10.3782 37.1673C13.1195 35.7435 16.1631 35.0001 19.2521 35C22.3411 34.9999 25.3848 35.743 28.1262 37.1666C30.8676 38.5902 33.2262 40.6525 35.0029 43.1793" stroke="#0F9918" stroke-width="3" stroke-linecap="round" stroke-linejoin="round"/>
<path d="M37.084 35C40.1733 34.9978 43.2176 35.74 45.9592 37.1637C48.7008 38.5875 51.059 40.6509 52.8341 43.1793" stroke="#0F9918" stroke-width="3" stroke-linecap="round" stroke-linejoin="round"/>
</svg>
