<svg width="56" height="56" viewBox="0 0 56 56" fill="none" xmlns="http://www.w3.org/2000/svg">
<path opacity="0.2" d="M28.0002 33.2498C20.6279 33.2614 13.3836 31.3232 7.00195 27.6319V45.4998C7.00195 45.7296 7.04722 45.9571 7.13516 46.1695C7.22311 46.3818 7.35201 46.5747 7.51451 46.7372C7.67702 46.8997 7.86993 47.0286 8.08225 47.1166C8.29458 47.2045 8.52214 47.2498 8.75195 47.2498H47.252C47.4818 47.2498 47.7093 47.2045 47.9216 47.1166C48.134 47.0286 48.3269 46.8997 48.4894 46.7372C48.6519 46.5747 48.7808 46.3818 48.8687 46.1695C48.9567 45.9571 49.002 45.7296 49.002 45.4998V27.6299C42.6195 31.3225 35.3739 33.2614 28.0002 33.2498Z" fill="#F249C8"/>
<path d="M47.252 15.75H8.75195C7.78545 15.75 7.00195 16.5335 7.00195 17.5V45.5C7.00195 46.4665 7.78545 47.25 8.75195 47.25H47.252C48.2185 47.25 49.002 46.4665 49.002 45.5V17.5C49.002 16.5335 48.2185 15.75 47.252 15.75Z" stroke="#F249C8" stroke-width="3" stroke-linecap="round" stroke-linejoin="round"/>
<path d="M36.748 15.75V12.25C36.748 11.3217 36.3793 10.4315 35.7229 9.77513C35.0665 9.11875 34.1763 8.75 33.248 8.75H22.748C21.8198 8.75 20.9296 9.11875 20.2732 9.77513C19.6168 10.4315 19.248 11.3217 19.248 12.25V15.75" stroke="#F249C8" stroke-width="3" stroke-linecap="round" stroke-linejoin="round"/>
<path d="M49.0023 27.6299C42.6198 31.3225 35.3742 33.2613 28.0005 33.2498C20.6281 33.2613 13.3837 31.3232 7.00195 27.6317" stroke="#F249C8" stroke-width="3" stroke-linecap="round" stroke-linejoin="round"/>
<path d="M25.377 26.25H30.627" stroke="#F249C8" stroke-width="3" stroke-linecap="round" stroke-linejoin="round"/>
</svg>
