<svg width="56" height="56" viewBox="0 0 56 56" fill="none" xmlns="http://www.w3.org/2000/svg">
<path opacity="0.2" d="M28.002 49C39.5999 49 49.0019 39.598 49.0019 28C49.0019 16.402 39.5999 7 28.002 7C16.404 7 7.00195 16.402 7.00195 28C7.00195 39.598 16.404 49 28.002 49Z" fill="#4BB8F3"/>
<path d="M28.002 49C39.5999 49 49.0019 39.598 49.0019 28C49.0019 16.402 39.5999 7 28.002 7C16.404 7 7.00195 16.402 7.00195 28C7.00195 39.598 16.404 49 28.002 49Z" stroke="#1FA7F1" stroke-width="3" stroke-miterlimit="10"/>
<path d="M37.0947 33.249C36.1722 34.8446 34.8462 36.1695 33.2497 37.0905C31.6533 38.0116 29.8426 38.4965 27.9996 38.4965C26.1565 38.4965 24.3458 38.0117 22.7493 37.0906C21.1529 36.1696 19.8268 34.8448 18.9043 33.2492" stroke="#1FA7F1" stroke-width="3" stroke-linecap="round" stroke-linejoin="round"/>
<path d="M19.3594 23.625C19.3594 23.2022 19.7022 22.8594 20.125 22.8594C20.5478 22.8594 20.8906 23.2022 20.8906 23.625C20.8906 24.0478 20.5478 24.3906 20.125 24.3906C19.7022 24.3906 19.3594 24.0478 19.3594 23.625Z" fill="#1FA7F1" stroke="#1FA7F1" stroke-width="6.78125"/>
<path d="M35.1074 23.625C35.1074 23.2022 35.4502 22.8594 35.873 22.8594C36.2959 22.8594 36.6387 23.2022 36.6387 23.625C36.6387 24.0478 36.2959 24.3906 35.873 24.3906C35.4502 24.3906 35.1074 24.0478 35.1074 23.625Z" fill="#1FA7F1" stroke="#1FA7F1" stroke-width="6.78125"/>
</svg>
