<svg width="76" height="76" viewBox="0 0 76 76" fill="none" xmlns="http://www.w3.org/2000/svg">
<g clip-path="url(#clip0_934_2190)">
<path d="M38 76C58.9868 76 76 58.9868 76 38C76 17.0132 58.9868 0 38 0C17.0132 0 0 17.0132 0 38C0 58.9868 17.0132 76 38 76Z" fill="#E21B1B"/>
<path d="M51.7871 38.567L29.1641 25.5068V51.6283L51.7871 38.567Z" fill="white"/>
<path d="M37.9995 9.7168C53.5949 9.7168 66.2822 22.404 66.2822 37.9995C66.2822 53.5949 53.5949 66.2822 37.9995 66.2822C22.404 66.2822 9.7168 53.5949 9.7168 37.9995C9.7168 22.404 22.404 9.7168 37.9995 9.7168ZM37.9995 8.5293C21.7236 8.5293 8.5293 21.7236 8.5293 37.9995C8.5293 54.2754 21.7236 67.4697 37.9995 67.4697C54.2754 67.4697 67.4697 54.2754 67.4697 37.9995C67.4697 21.7236 54.2754 8.5293 37.9995 8.5293Z" fill="white"/>
</g>
<defs>
<clipPath id="clip0_934_2190">
<rect width="76" height="76" fill="white"/>
</clipPath>
</defs>
</svg>
