<svg width="41" height="33" viewBox="0 0 41 33" fill="none" xmlns="http://www.w3.org/2000/svg">
<path d="M5.76464 28.8956L5.78865 28.922L5.81389 28.9472C7.2239 30.3572 9.51802 31.5 12.0621 31.5C14.3428 31.5 16.2738 30.7917 17.9261 29.1393L17.9668 29.0986L18.0043 29.0549C19.3373 27.4997 20.2868 25.4362 20.2868 23.2754C20.2868 18.806 16.9704 15.5337 12.8274 15.0625C12.2293 14.9787 11.6122 14.9558 11.0039 15.0033C11.2474 14.2821 11.5862 13.5245 12.064 12.7542C13.0915 11.0976 14.8118 9.3013 17.7758 7.68456L19.2405 6.88565L18.2909 5.5139L16.5617 3.01619L15.8469 1.98368L14.7047 2.50579C7.61502 5.7468 2.30043 12.1477 2.30043 19.6249C2.30043 23.8651 3.60929 26.5247 5.76464 28.8956ZM24.9779 28.8956L25.0019 28.922L25.0271 28.9472C26.4371 30.3572 28.7313 31.5 31.2754 31.5C33.556 31.5 35.487 30.7917 37.1393 29.1393L37.1801 29.0986L37.2176 29.0549C38.5506 27.4997 39.5 25.4362 39.5 23.2754C39.5 19.0241 36.2109 15.5375 32.0407 15.0625C31.4426 14.9787 30.8254 14.9558 30.2172 15.0033C30.4606 14.2821 30.7994 13.5245 31.2772 12.7542C32.3047 11.0976 34.0251 9.3013 36.9891 7.68456L38.4538 6.88565L37.5041 5.5139L35.7749 3.01619L35.0601 1.98368L33.918 2.50579C26.8283 5.7468 21.5137 12.1477 21.5137 19.6249C21.5137 23.8651 22.8225 26.5247 24.9779 28.8956Z" fill="#3B2F91" stroke="#FFF4E3" stroke-width="3"/>
</svg>
