<svg width="320" height="46" viewBox="0 0 320 46" fill="none" xmlns="http://www.w3.org/2000/svg">
<path d="M61.1508 0H49.5845C49.4188 0 49.2586 0.0587879 49.1322 0.165895L2.42899 39.7506C2.33444 39.8307 2.26288 39.9345 2.22164 40.0514L0.515099 44.8866C0.354466 45.3417 0.692104 45.8189 1.17475 45.8189H47.6637C47.9717 45.8189 48.2435 45.6174 48.333 45.3226L61.8202 0.902762C61.9566 0.453458 61.6204 0 61.1508 0Z" fill="#FF9900"/>
<path fill-rule="evenodd" clip-rule="evenodd" d="M46.6363 2.08664C46.6995 2.03322 46.7795 2.00391 46.8622 2.00391H61.0453C61.28 2.00391 61.4481 2.23049 61.38 2.4551L60.2055 6.33112C60.1608 6.47859 60.0248 6.57944 59.8707 6.57944H42.2807C41.9548 6.57944 41.806 6.17311 42.0548 5.96266L46.6363 2.08664ZM34.7972 12.2109C34.7145 12.2109 34.6345 12.2402 34.5713 12.2936L30.4057 15.8177C30.157 16.0282 30.3058 16.4345 30.6316 16.4345H56.8843C57.0384 16.4345 57.1744 16.3337 57.2191 16.1862L58.287 12.6621C58.355 12.4375 58.1869 12.2109 57.9522 12.2109H34.7972ZM18.983 26.2892C18.6572 26.2892 18.5084 25.8829 18.7571 25.6724L22.9223 22.1487C22.9854 22.0953 23.0655 22.0659 23.1482 22.0659H54.9658C55.2005 22.0659 55.3686 22.2925 55.3006 22.5171L54.2328 26.0409C54.1881 26.1883 54.0521 26.2892 53.898 26.2892H18.983ZM11.4996 31.9206C11.4169 31.9206 11.3368 31.9499 11.2737 32.0034L7.10829 35.5273C6.85952 35.7377 7.00834 36.1441 7.33419 36.1441H50.9117C51.0658 36.1441 51.2017 36.0432 51.2464 35.8958L52.3143 32.3718C52.3824 32.1472 52.2143 31.9206 51.9796 31.9206H11.4996ZM0.350101 45.9995C0.103476 45.9995 -0.06569 45.7511 0.0246456 45.5216L1.41203 41.9972C1.46467 41.8634 1.59377 41.7755 1.73749 41.7755H48.9932C49.2279 41.7755 49.396 42.0021 49.3279 42.2267L48.2599 45.7512C48.2152 45.8987 48.0793 45.9995 47.9252 45.9995H0.350101Z" fill="#3B2F91"/>
<path d="M34.6736 18.1875H31.2057C31.061 18.1875 30.9312 18.2766 30.8793 18.4117L24.153 35.8998C24.0649 36.1289 24.234 36.3752 24.4795 36.3752H28.1064C28.249 36.3752 28.3772 36.2886 28.4307 36.1565L31.5471 28.4474C31.6142 28.2815 31.7955 28.193 31.9675 28.2422L32.5238 28.4011C32.7205 28.4573 32.8272 28.6696 32.7549 28.861L30.095 35.9018C30.0086 36.1306 30.1777 36.3752 30.4222 36.3752H34.5646C34.7133 36.3752 34.8458 36.2812 34.8948 36.1408L40.9528 18.8084C41.0303 18.5865 40.8714 18.3529 40.6366 18.3435L36.9935 18.1978C36.8407 18.1917 36.7016 18.2856 36.6501 18.4296L34.2077 25.2683C34.1526 25.4227 33.9976 25.518 33.835 25.4977L33.1408 25.4109C32.9208 25.3834 32.7816 25.1607 32.8532 24.9509L35.0046 18.6503C35.0821 18.4233 34.9135 18.1875 34.6736 18.1875Z" fill="white"/>
<path d="M47.9289 18.3623H43.5568L36.5615 36.55H46.0052V33.2272H42.5075L47.9289 18.3623Z" fill="white"/>
<path d="M97.8359 12.1985V22.3828H99.8419H101.848V12.1985V2.01429H99.8419H97.8359V12.1985Z" fill="white"/>
<path d="M116.662 12.1985V22.3828H118.668H120.674V12.1985V2.01429H118.668H116.662V12.1985Z" fill="white"/>
<path d="M281.894 2.29156C281.833 2.35328 281.771 6.92077 281.771 12.4141V22.3823H286.987C292.943 22.3823 292.48 22.6292 292.326 19.4196L292.202 17.4754L289.085 17.3828C285.968 17.2902 285.937 17.2902 285.876 16.5187C285.876 16.0866 285.845 12.7536 285.814 9.0502L285.783 2.38414L283.9 2.26069C282.882 2.22983 281.956 2.22983 281.894 2.29156Z" fill="white"/>
<path d="M69.752 12.3529V22.3828H71.758H73.764V18.2165V14.0502H76.0786H78.3932V18.2165V22.3828H80.3992H82.4052V12.3529V2.3229H80.3992H78.3932V5.87196V9.45189L76.1712 9.3593L73.9183 9.26672L73.8257 5.77938L73.7331 2.3229H71.758H69.752V12.3529Z" fill="white"/>
<path d="M123.142 4.01942V5.7168H124.994H126.845V4.01942V2.32204H124.994H123.142V4.01942Z" fill="white"/>
<path d="M164.527 3.46477C163.879 5.96455 159.867 22.0742 159.867 22.2285C159.867 22.3211 160.824 22.3828 161.997 22.3828H164.095L164.373 20.7472L164.651 19.1424L166.934 19.0498C169.496 18.9572 169.589 19.0189 169.897 21.0558L170.082 22.3828H172.243C173.415 22.3828 174.372 22.2902 174.372 22.1359C174.372 21.9199 170.484 6.39661 169.712 3.46477L169.403 2.3229H167.12H164.836L164.527 3.46477ZM167.86 10.9641C168.231 12.5689 168.508 14.0502 168.508 14.2663C168.508 14.544 168.045 14.6675 167.12 14.6675C165.515 14.6675 165.546 14.7292 166.194 11.5196C166.873 8.24829 166.996 7.78537 167.12 7.93968C167.181 8.0014 167.521 9.3593 167.86 10.9641Z" fill="white"/>
<path d="M224.06 4.08113V5.87109L225.911 5.77851L227.763 5.65506V3.98855V2.32203H225.911H224.06V4.08113Z" fill="white"/>
<path d="M245.199 3.55677C243.811 4.63692 243.656 4.91467 243.502 6.24171C243.379 7.47617 243.224 7.75392 242.669 7.81564C242.021 7.90823 241.959 8.0934 241.959 9.72905C241.959 11.3647 242.021 11.5499 242.669 11.6425C243.317 11.735 243.348 11.8585 243.502 16.2099C243.595 19.0801 243.811 20.9317 244.058 21.3947C244.644 22.4131 245.848 22.7834 247.761 22.5365C249.273 22.3514 249.397 22.2588 249.242 21.6724C249.15 21.3021 249.057 20.438 249.057 19.759C249.057 18.5863 248.995 18.4937 248.224 18.5245H247.36L247.267 15.0063L247.175 11.4881L248.131 11.6733L249.057 11.8585V9.88336V7.87737H248.131H247.205V5.09984C247.205 3.55677 247.113 2.32231 246.989 2.35317C246.835 2.35317 246.064 2.90868 245.199 3.55677Z" fill="white"/>
<path d="M296.739 3.58763C295.35 4.63692 295.195 4.91467 295.041 6.24171C294.918 7.47616 294.763 7.75392 294.208 7.81564C293.56 7.90823 293.498 8.09339 293.498 9.72905C293.498 11.3647 293.56 11.5499 294.208 11.6425C294.856 11.735 294.887 11.8585 295.041 16.2099C295.134 19.0801 295.35 20.9317 295.597 21.3947C296.183 22.4131 297.387 22.7834 299.3 22.5365C300.812 22.3514 300.936 22.2588 300.781 21.6724C300.689 21.3021 300.596 20.438 300.596 19.759C300.596 18.5863 300.534 18.4937 299.763 18.5245C299.053 18.5245 298.899 18.3702 298.683 17.2901C298.528 16.6111 298.467 15.0681 298.498 13.8953L298.59 11.735L299.609 11.6425L300.596 11.5499V9.72905V7.90823L299.609 7.81564L298.59 7.72306L298.498 5.56276C298.374 2.13714 298.467 2.26059 296.739 3.58763Z" fill="white"/>
<path d="M309.239 5.34682C309.239 7.01334 309.146 8.49468 309.023 8.58727C308.93 8.71071 308.498 8.52555 308.128 8.15521C307.294 7.35281 305.535 7.29109 304.455 8.0009C304.023 8.27865 303.375 9.08105 303.005 9.82172C302.388 10.9327 302.295 11.5808 302.295 14.667C302.295 18.7407 302.82 20.6232 304.332 21.9194C305.69 23.0304 306.893 22.9378 308.22 21.6108C309.3 20.5306 309.578 20.3455 309.517 20.7467C309.3 22.1663 309.517 22.3823 311.245 22.3823H312.942V12.3524V2.3224H311.09H309.239V5.34682ZM308.714 12.8153C309.146 13.6177 309.239 14.2966 309.115 15.5002C308.868 17.5371 308.683 18 307.912 18.4321C307.356 18.7098 307.171 18.6172 306.523 17.9074C305.844 17.105 305.782 16.7964 305.906 14.8213C305.967 13.5251 306.183 12.3832 306.43 12.0746C307.109 11.2722 308.097 11.6117 308.714 12.8153Z" fill="white"/>
<path d="M135.178 7.63106C134.746 7.78537 134.036 8.34088 133.573 8.89638L132.74 9.88395L132.709 8.86552V7.87795H131.012H129.314V15.1304V22.3828H131.135H132.987L133.08 17.5684C133.172 12.9701 133.203 12.7232 133.882 12.1986C134.283 11.8591 134.777 11.6739 135.024 11.7974C135.456 11.9517 136.166 13.9885 136.073 14.76C136.042 14.9452 136.042 16.766 136.073 18.7412L136.104 22.3828H137.801H139.499L139.53 17.3524C139.56 14.6057 139.53 11.8591 139.499 11.2727C139.437 10.1308 138.727 8.31001 138.203 8.0014C137.493 7.56934 135.888 7.38417 135.178 7.63106Z" fill="white"/>
<path d="M178.415 7.60019C176.255 8.03225 174.99 10.532 175.576 13.1552C175.977 14.9452 176.934 15.8093 179.372 16.55C181.779 17.2598 182.489 18.0313 181.594 19.0189C180.792 19.9139 179.681 19.7596 179.063 18.6794C178.693 18.0622 178.354 17.8153 177.922 17.9079C177.582 17.9696 176.78 18.1239 176.132 18.2165C175.082 18.3708 174.99 18.4943 175.175 19.0806C176.008 21.7656 177.088 22.5371 180.113 22.5371C181.903 22.5371 182.52 22.4137 183.23 21.889C184.526 20.9323 185.174 19.5744 185.205 17.8153C185.297 14.76 184.341 13.6799 180.853 12.8466C179.403 12.4763 178.817 12.1985 178.755 11.7973C178.477 10.4394 180.514 9.76049 181.193 10.9949C181.501 11.5813 181.717 11.643 183.075 11.4887C183.94 11.3653 184.711 11.211 184.804 11.1184C185.112 10.8406 183.847 8.52603 183.168 8.06311C182.366 7.53847 179.928 7.29158 178.415 7.60019Z" fill="white"/>
<path d="M87.5283 8.12392C85.6458 9.4201 84.8125 11.5804 84.8125 15.3146C84.8125 18.0613 85.6458 20.4068 87.0654 21.5795C88.7319 22.9991 92.1575 22.9683 93.8549 21.5486C94.8116 20.7154 95.8301 19.0489 95.5523 18.7711C95.4597 18.6785 94.6573 18.4625 93.7623 18.339C92.3736 18.123 92.1267 18.1539 91.7563 18.6785C91.2317 19.3883 89.7503 19.5118 89.2257 18.8637C89.0097 18.6168 88.7628 17.9378 88.6702 17.3206L88.485 16.2096H92.281H96.077L95.8918 14.0493C95.6758 11.6113 94.9042 9.60527 93.7006 8.49426C92.5279 7.44497 88.8862 7.22894 87.5283 8.12392ZM91.4477 11.2101C91.7255 11.5187 92.065 12.2285 92.1575 12.7531L92.3736 13.7407H90.4602C88.7011 13.7407 88.5776 13.7098 88.5776 13C88.5776 12.0742 89.6886 10.6546 90.3984 10.6546C90.7071 10.6546 91.17 10.9014 91.4477 11.2101Z" fill="white"/>
<path d="M104.626 7.81586C104.409 7.90845 104.317 11.2415 104.317 17.9384V27.9375H106.014H107.712L107.743 24.7588C107.773 23.0305 107.773 21.5183 107.743 21.3949C107.743 21.2714 108.236 21.5183 108.854 21.9195C110.458 23.0305 111.569 22.938 112.958 21.5183C114.409 20.0678 114.964 17.815 114.748 14.0499C114.47 9.66755 113.236 7.56897 110.86 7.56897C109.779 7.56897 109.347 7.75414 108.576 8.49482C107.496 9.57496 107.28 9.63669 107.496 8.80343C107.588 8.46395 107.526 8.09362 107.341 8.00103C107.002 7.785 105.119 7.66156 104.626 7.81586ZM110.613 12.2599C110.952 12.7228 111.106 13.6487 111.106 14.9757C111.106 18.0001 109.872 19.2963 108.452 17.7224C108.02 17.2595 107.897 16.6114 107.897 14.9757C107.897 13.3401 108.02 12.692 108.452 12.229C109.224 11.3958 110.026 11.3958 110.613 12.2599Z" fill="white"/>
<path d="M144.282 8.15494C142.585 9.26595 141.844 11.0559 141.721 14.2964C141.567 17.8454 141.999 19.6045 143.48 21.1476C145.887 23.6782 150.424 22.9684 152.029 19.8514C152.615 18.7095 152.399 18.4935 150.424 18.2775C149.128 18.1232 148.819 18.1849 148.51 18.7095C148.078 19.4194 146.535 19.5119 146.011 18.8639C145.795 18.617 145.548 17.938 145.455 17.3208L145.27 16.2098H149.066H152.862L152.677 14.0495C152.461 11.6114 151.689 9.60543 150.486 8.49442C149.776 7.84633 149.282 7.72288 147.43 7.6303C145.609 7.56858 145.023 7.66116 144.282 8.15494ZM148.233 11.2102C148.51 11.5188 148.85 12.2286 148.942 12.7533L149.159 13.7409H147.245C145.486 13.7409 145.363 13.71 145.363 13.0002C145.363 12.0743 146.474 10.6547 147.183 10.6547C147.492 10.6547 147.955 10.9016 148.233 11.2102Z" fill="white"/>
<path d="M188.846 8.03173C187.118 8.98843 186.439 12.5992 187.612 14.5435C188.198 15.5002 189.001 15.9322 192.118 16.8889C193.198 17.2284 193.352 17.4136 193.352 18.1851C193.352 18.6789 193.136 19.2036 192.858 19.3887C192.118 19.8516 190.883 19.4196 190.482 18.5246C190.173 17.8765 189.988 17.7839 189.124 17.9382C186.408 18.4012 186.316 18.4937 187.211 20.4071C187.828 21.7033 189.032 22.3823 191.161 22.5983C193.568 22.8452 195.482 21.9194 196.284 20.1603C197.303 17.9382 196.932 15.2842 195.482 13.988C195.142 13.6794 193.969 13.2473 192.889 13.0004C190.698 12.4758 189.957 11.8585 190.451 10.9327C190.852 10.1303 192.118 10.192 192.704 10.9944C193.105 11.5808 193.352 11.6425 194.772 11.4882C195.636 11.3648 196.438 11.2413 196.5 11.1487C196.747 10.9018 195.358 8.52551 194.679 8.06259C193.784 7.4145 189.988 7.4145 188.846 8.03173Z" fill="white"/>
<path d="M201.284 8.18644C199.402 9.32832 198.383 11.8281 198.414 15.2228C198.445 20.0989 201.068 23.1542 204.679 22.5679C206.5 22.2592 207.673 21.3025 208.599 19.3274C210.296 15.6549 209.308 9.76038 206.716 8.18644C205.327 7.35319 202.673 7.35319 201.284 8.18644ZM205.111 12.075C206.315 13.8958 205.883 18.093 204.432 18.741C203.784 19.0497 203.568 18.9879 203.013 18.4633C201.84 17.2597 201.655 14.1118 202.673 12.1058C203.229 10.9948 204.401 10.964 205.111 12.075Z" fill="white"/>
<path d="M213.691 8.15536C213.135 8.49484 212.394 9.42068 211.901 10.3774C211.222 11.7661 211.098 12.4142 211.098 14.7597C211.098 18.1853 211.53 19.6975 212.95 21.1789C214.802 23.1231 218.381 23.1849 220.233 21.3332C221.097 20.4382 222.486 17.599 222.147 17.2903C222.085 17.2286 221.252 17.0743 220.326 16.9509C218.69 16.7657 218.659 16.7657 218.32 17.6915C217.857 18.926 216.591 19.2963 215.727 18.5248C214.215 17.136 214.308 12.5377 215.851 11.5193C216.622 10.9946 217.61 11.2724 218.104 12.1365C218.598 12.9697 218.628 13.0006 220.264 12.692C221.375 12.5068 221.9 12.2599 221.9 11.9205C221.9 10.9638 220.542 8.71087 219.616 8.15536C218.289 7.35297 215.018 7.35297 213.691 8.15536Z" fill="white"/>
<path d="M232.423 7.96978C231.436 8.46356 230.602 9.66716 230.355 10.8399C230.201 11.7349 230.232 11.8275 231.158 12.0126C232.855 12.3521 233.935 12.2287 233.935 11.7349C233.935 11.2102 234.861 10.6547 235.787 10.6547C236.589 10.6547 237.268 11.9818 236.775 12.599C236.559 12.8459 235.818 13.2162 235.108 13.4322C230.818 14.7593 229.923 15.6543 229.923 18.5244C229.923 21.8265 232.331 23.4931 235.324 22.2277C235.941 21.9809 236.497 21.5797 236.589 21.3019C236.867 20.623 237.268 20.7464 237.392 21.5179C237.484 22.1352 237.7 22.2277 239.182 22.3203L240.879 22.4129L240.787 17.5368C240.694 11.5188 240.324 9.60543 239.182 8.4327C238.349 7.6303 238.133 7.56858 235.725 7.56858C234.306 7.56858 232.824 7.75375 232.423 7.96978ZM237.021 16.5184C237.021 17.8763 236.219 19.2651 235.324 19.4811C234.244 19.7588 233.565 19.1107 233.688 17.938C233.75 17.1973 234.059 16.827 235.015 16.3024C236.682 15.3765 237.021 15.4074 237.021 16.5184Z" fill="white"/>
<path d="M253.347 8.27914C252.761 8.64948 251.958 9.63704 251.526 10.5012C250.847 11.8282 250.755 12.4454 250.755 15.1304C250.755 17.7227 250.878 18.4325 251.496 19.6979C252.545 21.8582 253.687 22.5371 256.156 22.5371C257.421 22.5062 258.501 22.3211 259.149 21.9816C260.229 21.4261 261.556 19.5127 261.31 18.8646C261.217 18.6486 260.476 18.3708 259.674 18.2474C258.439 18.0931 258.1 18.1548 257.544 18.6794C256.279 19.8522 254.643 19.0806 254.52 17.2598L254.458 16.3648H258.131H261.772L261.649 14.0194C261.495 11.211 260.538 9.01981 259.118 8.15569C257.699 7.29158 254.736 7.3533 253.347 8.27914ZM256.958 10.9024C257.452 11.2418 258.007 12.3837 258.007 13.0935C258.007 13.6799 257.822 13.7416 256.125 13.7416H254.242L254.427 12.754C254.767 11.0875 255.94 10.2234 256.958 10.9024Z" fill="white"/>
<path d="M265.045 8.27856C263.903 9.23527 263.563 10.0685 263.563 11.9819C263.563 14.4817 264.397 15.531 267.082 16.426C270.106 17.4444 270.631 18.0308 269.55 19.1109C268.779 19.9133 267.606 19.7281 267.051 18.7097C266.588 17.9073 266.403 17.8456 265.292 17.9999C263.039 18.2777 262.946 18.3702 263.409 19.6973C263.625 20.3454 264.057 21.1478 264.366 21.4872C265.538 22.7834 269.334 23.0303 271.248 21.8884C272.606 21.086 273.254 19.6973 273.254 17.753C273.254 14.8212 272.019 13.4016 269.118 12.9386C267.39 12.6609 266.372 11.8276 266.835 11.0561C267.328 10.2228 268.686 10.1611 269.18 10.9326C269.581 11.6116 270.939 11.7659 272.421 11.3338L273.1 11.1178L272.544 9.85249C271.68 7.96995 270.939 7.56875 268.193 7.56875C266.248 7.56875 265.754 7.69219 265.045 8.27856Z" fill="white"/>
<path d="M123.142 15.1304V22.3828H124.994H126.845V15.1304V7.87795H124.994H123.142V15.1304Z" fill="white"/>
<path d="M224.06 15.1304V22.3828H225.911H227.763V15.1304V7.87795H225.911H224.06V15.1304Z" fill="white"/>
<path d="M315.102 19.451V22.3828H317.262H319.422V19.451V16.5191H317.262H315.102V19.451Z" fill="white"/>
<path d="M224.523 29.0795C223.196 29.3264 222.949 29.4807 223.443 29.7893C223.782 30.0054 223.659 30.8695 222.548 34.9432C220.943 40.776 221.005 40.4365 221.683 40.4365C222.085 40.4365 222.393 39.9736 222.794 38.8317C223.443 36.9492 224.739 34.9432 225.819 34.2642C227.146 33.4001 227.269 34.0482 226.467 37.0726C225.634 40.0353 225.665 40.5908 226.529 40.5908C227.208 40.5908 228.998 39.1403 228.967 38.6466C228.967 38.4305 228.751 38.5848 228.473 38.986C228.226 39.3564 227.794 39.665 227.547 39.665C227.053 39.665 227.023 39.7267 228.01 36.2702C228.782 33.4618 228.596 32.9372 226.837 33.1841C226.59 33.2149 225.726 33.863 224.924 34.6654L223.443 36.0851L224.06 33.9248C225.017 30.6843 225.387 29.1721 225.263 29.0487C225.202 29.0178 224.862 29.0178 224.523 29.0795Z" fill="#E1E0E8"/>
<path d="M282.604 29.1716C281.277 29.4185 280.722 29.7889 281.709 29.7889C282.08 29.7889 282.388 29.8815 282.388 30.0358C282.388 30.1592 281.833 32.2578 281.154 34.7267C280.475 37.1956 279.919 39.5102 279.919 39.8806C279.919 41.2385 282.234 40.5286 283.036 38.9547C283.345 38.3683 283.252 38.3992 282.45 39.1399C281.925 39.6645 281.463 39.8806 281.339 39.7263C281.246 39.5411 281.771 37.0722 282.574 34.2638C283.345 31.4245 283.931 29.0791 283.87 29.0482C283.808 29.0173 283.252 29.0791 282.604 29.1716Z" fill="#E1E0E8"/>
<path d="M79.3188 30.2216C79.3188 31.0857 80.0595 31.4869 80.5533 30.8696C81.0471 30.2524 80.7076 29.4809 79.9361 29.4809C79.504 29.4809 79.3188 29.6969 79.3188 30.2216Z" fill="#E1E0E8"/>
<path d="M147.739 29.6654C147.369 30.0358 147.492 30.9616 147.924 31.1159C148.573 31.3628 149.128 30.869 149.005 30.2209C148.912 29.6346 148.11 29.2951 147.739 29.6654Z" fill="#E1E0E8"/>
<path d="M214.091 29.6654C213.721 30.0358 213.844 30.9616 214.277 31.1159C214.925 31.3628 215.48 30.869 215.357 30.2209C215.264 29.6346 214.462 29.2951 214.091 29.6654Z" fill="#E1E0E8"/>
<path d="M268.377 30.0058C268.254 30.2835 268.377 30.7156 268.655 30.9933C269.056 31.4254 269.179 31.4254 269.581 30.9933C270.167 30.407 269.889 29.4811 269.118 29.4811C268.809 29.4811 268.47 29.728 268.377 30.0058Z" fill="#E1E0E8"/>
<path d="M115.551 32.197C115.026 32.66 114.347 33.1846 114.008 33.4006C113.452 33.7401 113.452 33.771 114.131 33.771C114.501 33.8018 114.81 33.8944 114.81 33.987C114.81 34.1104 114.44 35.4992 114.008 37.104C113.452 39.2026 113.298 40.1284 113.545 40.3753C114.038 40.8691 115.396 40.2827 116.014 39.3569C116.476 38.5853 116.476 38.5853 115.859 39.11C114.594 40.221 114.532 39.8507 115.489 36.3325C116.106 34.1413 116.291 33.8018 116.878 33.8018C117.248 33.8018 117.649 33.6475 117.742 33.4932C117.834 33.308 117.587 33.1846 117.155 33.1846C116.446 33.1846 116.415 33.1229 116.662 32.2588C117.001 31.1169 116.785 31.1169 115.551 32.197Z" fill="#E1E0E8"/>
<path d="M159.374 32.1963C158.849 32.6592 158.17 33.1838 157.831 33.3999C157.275 33.7393 157.275 33.7702 157.954 33.7702C158.479 33.801 158.633 33.9245 158.509 34.3257C157.831 36.5786 157.09 39.603 157.09 40.0351C157.09 40.8683 158.293 40.714 159.312 39.7573C159.775 39.2944 160.176 38.8006 160.176 38.6154C160.176 38.4303 159.96 38.6154 159.682 38.9858C159.127 39.819 158.201 39.9116 158.448 39.1092C158.54 38.8315 158.911 37.5044 159.281 36.1774C159.867 34.0788 160.053 33.801 160.701 33.801C161.071 33.801 161.41 33.6467 161.41 33.4924C161.41 33.3073 161.133 33.1838 160.762 33.1838C160.207 33.1838 160.145 33.0604 160.33 32.258C160.454 31.7333 160.485 31.3321 160.423 31.3321C160.361 31.3321 159.898 31.7333 159.374 32.1963Z" fill="#E1E0E8"/>
<path d="M219.431 31.61C219.431 31.7643 218.782 32.3198 217.98 32.8444C216.869 33.5851 216.684 33.8011 217.209 33.8011C218.042 33.8011 218.042 33.9554 217.116 37.3193C216.715 38.8315 216.437 40.1894 216.53 40.3129C216.993 41.0536 218.813 40.1894 219.461 38.955C219.801 38.3069 219.801 38.3069 218.999 39.0167C218.566 39.4488 218.104 39.6957 218.011 39.5722C217.888 39.4488 218.134 38.1526 218.566 36.6712C219.276 34.2023 219.4 33.9554 220.14 33.8628C221.19 33.7394 221.221 33.1839 220.202 33.1839C219.523 33.1839 219.461 33.1222 219.739 32.3815C220.11 31.3939 220.11 31.3322 219.739 31.3322C219.585 31.3322 219.431 31.4557 219.431 31.61Z" fill="#E1E0E8"/>
<path d="M71.7271 33.214C70.4309 33.5843 68.3323 35.8989 67.8694 37.5037C67.3756 39.1394 67.9311 40.3738 69.1964 40.5281C70.2457 40.6516 71.7888 39.8492 72.2517 38.9542L72.6221 38.2752L71.8197 38.9851C71.295 39.4788 70.7704 39.664 70.184 39.6023C68.9496 39.4788 68.857 38.2444 69.9063 36.0841C70.8012 34.2324 71.7888 33.3991 72.8998 33.5535C73.8565 33.6769 74.0109 35.1891 73.2393 36.7939C72.8998 37.442 72.6529 38.5221 72.6529 39.2011C72.6838 40.8676 73.5788 41.0219 74.8441 39.6023C75.3688 39.0468 75.4613 38.8616 75.0601 39.1702C74.6898 39.5097 74.2886 39.664 74.1652 39.5406C74.0417 39.4171 74.2886 37.9358 74.7207 36.2384L75.5231 33.1214L74.7207 33.2757C74.2886 33.3683 73.6714 33.3374 73.3319 33.214C72.9616 33.0597 72.2517 33.0905 71.7271 33.214Z" fill="#E1E0E8"/>
<path d="M85.8617 34.2951C85.0901 35.1284 84.5655 35.4987 84.6581 35.1592C84.7507 34.8197 84.905 34.2642 85.0284 33.863C85.2136 33.2767 85.121 33.1841 84.3495 33.2149C83.8865 33.2149 83.2076 33.3384 82.8681 33.4927C82.2817 33.7396 82.2817 33.7705 82.9607 33.7705C83.8248 33.8013 83.8248 34.0173 82.8681 37.2269C81.9423 40.3439 81.9423 40.5908 82.6521 40.5908C83.0533 40.5908 83.3619 40.2205 83.6088 39.2638C84.1026 37.6281 85.3988 35.2209 86.1703 34.5111C86.6641 34.0791 86.8184 34.0482 87.0344 34.3877C87.3739 34.974 88.2689 34.5728 88.2689 33.8322C88.2689 32.6286 87.3122 32.8137 85.8617 34.2951Z" fill="#E1E0E8"/>
<path d="M93.5153 33.0914C93.2684 33.184 92.682 33.5234 92.2191 33.832C91.4167 34.4184 91.4167 34.4184 91.571 33.8012C91.7253 33.2457 91.571 33.184 90.3983 33.184C89.1947 33.184 89.133 33.2148 89.6576 33.616C90.2131 34.0172 90.1822 34.1715 89.0404 38.4613C88.2688 41.3931 87.6825 43.0905 87.2813 43.4299C86.664 43.9546 86.7258 43.9854 88.6083 43.9546C90.1205 43.9546 90.4291 43.8929 89.9045 43.6768C89.1021 43.3682 89.0712 43.0905 89.5033 41.4857C89.781 40.4672 89.8736 40.4055 90.8612 40.529C94.5954 40.961 98.3297 34.3567 95.0275 33.2148C94.472 33.0296 94.0399 32.8753 94.0091 32.9062C93.9782 32.9062 93.7622 32.9988 93.5153 33.0914ZM94.5646 34.295C95.0892 35.6529 93.8856 38.8316 92.4969 39.7574C91.4784 40.4055 90.46 40.4364 90.2131 39.7883C89.9354 39.0785 91.0772 35.6837 91.9105 34.6653C92.7438 33.6777 94.256 33.4617 94.5646 34.295Z" fill="#E1E0E8"/>
<path d="M101.014 33.3688C97.8973 34.4489 96.1382 39.0473 98.4219 40.2508C100.49 41.3619 103.576 39.6953 104.779 36.7944C105.86 34.1712 103.915 32.3812 101.014 33.3688ZM103.391 33.9551C104.193 34.9118 102.928 38.7695 101.477 39.7879C100.027 40.8064 98.7614 40.1274 98.7614 38.3683C98.7614 37.2882 100.15 34.5724 100.953 33.986C101.848 33.3688 102.897 33.3379 103.391 33.9551Z" fill="#E1E0E8"/>
<path d="M111.508 33.2142C111.137 33.3377 110.489 33.9857 110.026 34.6338L109.193 35.8066L109.409 34.4795C109.594 33.2759 109.563 33.1833 108.885 33.2142C108.514 33.2142 107.897 33.3377 107.588 33.4611C107.002 33.6771 107.002 33.708 107.65 33.8623L108.298 34.0475L107.588 36.609C107.187 38.0286 106.786 39.5099 106.662 39.9111C106.446 40.5592 106.508 40.6209 107.125 40.5284C107.65 40.4666 107.928 40.0346 108.36 38.7693C108.946 37.1027 110.674 34.1092 111.076 34.1092C111.199 34.1092 111.446 34.2635 111.631 34.4487C112.125 34.9424 112.958 34.5721 112.958 33.8314C112.958 33.1216 112.403 32.8747 111.508 33.2142Z" fill="#E1E0E8"/>
<path d="M125.642 33.5547C123.914 34.4805 122.494 36.4248 122.309 38.1839C122 40.7762 124.037 41.4552 126.198 39.5109L127.401 38.3999L127.37 39.4183C127.278 40.838 128.265 40.9305 129.469 39.6035L130.395 38.6159L129.531 39.1714C129.037 39.4801 128.605 39.6652 128.543 39.6035C128.481 39.5418 128.759 38.1839 129.16 36.5791C129.592 34.9743 129.932 33.5547 129.932 33.4004C129.932 33.2769 129.561 33.2152 129.098 33.2461C128.605 33.2769 127.957 33.1843 127.586 33.0917C127.185 32.9374 126.475 33.1226 125.642 33.5547ZM128.173 35.0052C128.049 37.5358 125.796 40.159 124.253 39.5726C123.204 39.1714 123.883 36.3322 125.488 34.4497C126.136 33.6473 126.506 33.4929 127.278 33.5547C128.204 33.6473 128.234 33.709 128.173 35.0052Z" fill="#E1E0E8"/>
<path d="M134.098 33.1225C133.327 33.2769 132.71 34.0484 132.71 34.8508C132.71 35.2211 133.203 36.2395 133.821 37.1345C134.839 38.585 134.932 38.8628 134.592 39.5417C134.098 40.6836 132.71 40.4676 132.061 39.1405C131.475 37.9986 131.167 38.1221 131.167 39.48C131.167 40.4058 131.197 40.4367 132.802 40.5293C134.098 40.591 134.623 40.4676 135.271 39.9738C136.382 39.0788 136.32 38.2147 134.993 36.2704C133.697 34.3879 133.697 33.6472 135.024 33.6472C135.734 33.6472 136.043 33.8632 136.413 34.573L136.876 35.4989L136.968 34.4804C137.03 33.8941 137.03 33.4003 136.968 33.3386C136.752 33.1534 134.654 32.9991 134.098 33.1225Z" fill="#E1E0E8"/>
<path d="M140.795 33.2143C140.425 33.3686 139.962 33.8315 139.746 34.2635C139.437 34.9425 139.53 35.2511 140.517 36.8559C141.783 38.8619 141.875 39.3865 141.196 39.9729C140.456 40.5901 139.19 40.0655 138.758 39.0162C138.357 38.0595 138.357 38.0595 138.172 38.7693C137.709 40.4358 137.801 40.4975 139.993 40.4667C141.628 40.4358 142.122 40.3124 142.462 39.8186C143.171 38.8619 142.955 37.7817 141.813 36.0844C140.61 34.3561 140.641 33.492 141.844 33.492C142.338 33.492 142.77 33.8006 143.171 34.4487L143.758 35.3746L143.912 34.3561C143.974 33.8006 144.036 33.3068 144.005 33.3068C143.758 33.0908 141.351 33.0291 140.795 33.2143Z" fill="#E1E0E8"/>
<path d="M152.461 33.2459C151.751 33.4928 151.227 34.6347 151.474 35.3445C151.566 35.5914 152.029 36.3938 152.523 37.1036C153.48 38.5232 153.603 39.3874 152.924 39.9737C152.214 40.5601 151.042 40.0972 150.609 39.0479C150.147 37.9369 150.147 37.9369 149.869 39.3565L149.684 40.4367L151.504 40.5292C154.714 40.6527 155.671 38.8319 153.726 36.2395C152.523 34.6039 152.461 33.4928 153.51 33.4928C154.375 33.4928 155.239 34.2027 155.27 34.9742C155.3 35.3137 155.393 35.1902 155.547 34.7273C156.041 33.1842 155.948 33.0299 154.467 33.0299C153.696 33.0299 152.801 33.1225 152.461 33.2459Z" fill="#E1E0E8"/>
<path d="M165.546 33.2144C165.022 33.3687 164.003 34.1094 163.324 34.8501C160.948 37.4115 160.948 40.3434 163.324 40.5285C164.281 40.6211 164.62 40.436 165.608 39.4793L166.75 38.3065L166.565 39.2941C166.41 40.0656 166.472 40.3434 166.842 40.4977C167.46 40.7137 168.787 40.0039 169.188 39.2015C169.527 38.5843 169.527 38.5843 168.848 39.1706C168.509 39.5101 168.108 39.6644 167.984 39.541C167.799 39.3558 168.818 34.634 169.342 33.2453C169.466 32.9675 169.311 32.9366 168.694 33.1835C168.231 33.3378 167.583 33.3687 167.213 33.2144C166.812 33.091 166.071 33.091 165.546 33.2144ZM167.521 34.634C167.614 35.7142 166.503 38.2448 165.485 39.1398C165.114 39.4793 164.528 39.6644 163.972 39.6027C163.17 39.5101 163.108 39.4175 163.17 38.1831C163.232 36.7635 164.435 34.3563 165.361 33.8008C165.639 33.6465 166.225 33.523 166.657 33.5847C167.275 33.6465 167.46 33.8316 167.521 34.634Z" fill="#E1E0E8"/>
<path d="M175.669 33.431C174.681 33.9865 172.953 35.8999 173.231 36.1468C173.293 36.2394 173.694 35.869 174.064 35.3752C174.435 34.8506 175.021 34.2642 175.36 34.0791C176.502 33.4618 176.626 34.1716 175.823 37.0726C175.021 40.0353 175.052 40.5908 175.916 40.5908C176.564 40.5908 178.385 39.1712 178.385 38.6466C178.385 38.4614 178.045 38.6466 177.613 39.0478C177.181 39.4489 176.749 39.665 176.626 39.5724C176.533 39.4489 176.749 38.3379 177.089 37.0726C177.922 34.2642 177.922 33.6161 177.212 33.2149C176.78 32.9989 176.379 33.0606 175.669 33.431Z" fill="#E1E0E8"/>
<path d="M183.322 33.2767C180.946 34.0482 179.526 35.8382 179.526 37.9985C179.526 39.7576 180.329 40.5908 181.995 40.5908C183.106 40.5908 185.174 39.5415 185.174 38.986C185.174 38.8317 184.804 38.986 184.372 39.3255C183.291 40.1896 181.934 40.1588 181.347 39.2946C180.761 38.4922 180.761 38.0602 181.162 36.5171C181.625 34.8815 183.045 33.4927 184.217 33.4927C185.081 33.4927 185.174 33.5544 184.989 34.2642C184.835 34.9123 184.896 35.0358 185.452 35.0358C186.285 35.0358 186.655 34.2025 186.069 33.647C185.39 33.0298 184.495 32.9063 183.322 33.2767Z" fill="#E1E0E8"/>
<path d="M191.192 33.3689C188.168 34.3873 186.285 38.3067 187.983 40.0041C188.816 40.8373 190.853 40.683 192.272 39.6646C193.538 38.7696 193.26 38.5227 191.933 39.3251C191.347 39.6954 190.668 39.9732 190.39 39.9732C189.649 39.9732 188.816 38.8931 188.939 38.0907C189.001 37.5352 189.341 37.3191 190.513 37.0105C192.365 36.5476 193.445 35.8378 193.815 34.8811C194.402 33.3071 193.26 32.659 191.192 33.3689ZM192.89 34.0478C192.89 34.3564 192.704 34.8811 192.458 35.2205C191.964 35.9304 189.587 37.1031 189.31 36.7945C189.094 36.5784 189.865 35.2514 190.822 34.1713C191.593 33.338 192.89 33.2454 192.89 34.0478Z" fill="#E1E0E8"/>
<path d="M209.061 33.3383C208.937 33.5851 209.03 34.0172 209.246 34.2641C209.801 34.9122 209.431 35.8998 208.042 37.5663C206.746 39.1402 206.468 39.0476 206.468 37.0725C206.468 35.5603 206.098 33.1839 205.882 33.1839C205.758 33.1839 204.987 34.295 204.154 35.622C202.425 38.3687 202.364 38.3687 201.993 34.943C201.808 33.2457 201.777 33.1839 200.882 33.1839C200.018 33.1839 199.648 33.6469 200.327 33.8629C200.481 33.9246 200.79 35.4677 200.975 37.2885C201.16 39.1093 201.407 40.5907 201.5 40.5907C201.592 40.5907 202.456 39.2945 203.382 37.7206L205.08 34.8813L205.326 37.6589C205.45 39.1711 205.666 40.4981 205.758 40.5907C206.191 41.0227 210.48 35.1282 210.48 34.0789C210.48 33.2765 209.308 32.6902 209.061 33.3383Z" fill="#E1E0E8"/>
<path d="M237.022 33.2458C236.682 33.3692 236.25 33.8321 236.034 34.2642C235.725 34.9431 235.818 35.2518 236.806 36.8566C238.04 38.8625 238.164 39.3872 237.515 39.9736C236.744 40.5908 235.664 40.2204 235.139 39.1094C234.645 38.1527 234.614 38.1527 234.429 38.8008C233.997 40.4056 234.09 40.4982 236.281 40.4673C237.917 40.4365 238.41 40.313 238.75 39.8192C239.46 38.8625 239.244 37.7824 238.102 36.085C236.898 34.3568 236.929 33.4927 238.133 33.4927C238.657 33.4927 239.089 33.8013 239.491 34.4802C239.984 35.2826 240.108 35.3752 240.108 34.8814C240.108 34.5419 240.2 33.9864 240.293 33.647C240.416 33.0915 240.293 33.0297 239.059 33.0297C238.287 33.0297 237.361 33.1223 237.022 33.2458Z" fill="#E1E0E8"/>
<path d="M246.28 33.0913C246.034 33.1839 245.447 33.5233 244.984 33.832C244.182 34.4183 244.182 34.4183 244.336 33.8011C244.49 33.2764 244.336 33.1839 243.503 33.1839C242.7 33.1839 242.577 33.2764 242.731 33.7702C243.009 34.6961 240.756 42.8126 240.016 43.4298C239.429 43.9545 239.491 43.9854 241.219 43.9854C242.608 43.9545 242.917 43.8928 242.515 43.6459C241.867 43.2755 241.836 42.9978 242.268 41.4856C242.546 40.4672 242.639 40.4054 243.626 40.5289C247.361 40.9609 251.095 34.3566 247.793 33.2147C247.237 33.0296 246.805 32.8752 246.774 32.9061C246.743 32.9061 246.527 32.9987 246.28 33.0913ZM247.33 34.2949C247.854 35.6528 246.651 38.8315 245.262 39.7573C244.244 40.4054 243.225 40.4363 242.978 39.7882C242.7 39.0784 243.842 35.6836 244.676 34.6652C245.509 33.6776 247.021 33.4616 247.33 34.2949Z" fill="#E1E0E8"/>
<path d="M254.181 33.339C251.064 34.45 249.212 38.2768 250.941 40.005C251.774 40.8383 253.811 40.684 255.23 39.6656C256.527 38.7397 256.218 38.5854 254.706 39.4187C253.626 40.005 253.317 40.0359 252.638 39.7273C251.99 39.4495 251.836 39.1409 251.836 38.2768C251.836 37.4744 251.959 37.1967 252.329 37.1967C253.379 37.1967 255.261 36.456 256.002 35.777C256.928 34.9129 257.02 33.6476 256.187 33.1847C255.477 32.8143 255.662 32.8143 254.181 33.339ZM255.755 33.9871C256.033 34.8203 252.854 37.3818 252.268 36.7955C252.021 36.5486 252.7 35.345 253.626 34.3265C254.428 33.4624 255.539 33.3081 255.755 33.9871Z" fill="#E1E0E8"/>
<path d="M261.618 33.3383C258.532 34.4185 256.989 38.0601 258.81 39.8809C259.489 40.5599 259.797 40.6525 261.001 40.4982C261.988 40.4056 262.637 40.097 263.223 39.5106L264.025 38.6773L262.945 39.3254C260.847 40.5599 259.55 40.0044 259.55 37.8132C259.55 36.1467 261.155 33.6469 262.328 33.4926C263.285 33.3383 263.562 33.5235 263.562 34.2642C263.562 34.8197 263.717 35.0357 264.149 35.0357C264.889 35.0357 265.167 34.3259 264.704 33.7086C264.149 33.0297 262.914 32.8754 261.618 33.3383Z" fill="#E1E0E8"/>
<path d="M274.364 33.3691C272.975 33.9863 271.988 34.9121 271.247 36.3318C270.599 37.6279 270.475 39.6648 271.031 40.2203C271.741 40.9301 273.346 40.6524 274.518 39.6339L275.598 38.6772V39.6339C275.598 40.3746 275.722 40.5906 276.185 40.5906C276.833 40.5906 278.808 39.0784 278.53 38.8007C278.469 38.7081 278.098 38.8933 277.759 39.2019C277.419 39.5105 277.049 39.6648 276.926 39.5722C276.833 39.4488 277.111 37.9674 277.543 36.3009C278.006 34.6035 278.376 33.153 278.376 33.0913C278.376 32.9987 278.098 32.9987 277.759 33.0913C277.419 33.1839 277.142 33.3999 277.142 33.5542C277.142 33.7085 276.833 33.616 276.463 33.3691C275.629 32.7827 275.722 32.7827 274.364 33.3691ZM276.555 34.0172C276.679 35.838 276.092 37.3502 274.734 38.8007C273.839 39.7574 272.389 39.9734 272.08 39.171C271.71 38.1834 272.636 35.7763 273.994 34.3258C274.92 33.3382 276.493 33.153 276.555 34.0172Z" fill="#E1E0E8"/>
<path d="M292.881 33.2458C291.276 33.7087 290.227 34.5728 289.487 36.1159C288.283 38.5848 289.24 40.5908 291.616 40.5908C292.665 40.5908 294.733 39.5415 294.733 39.0169C294.733 38.8317 294.332 38.986 293.838 39.3255C291.307 41.1463 289.548 38.9552 290.999 35.7764C291.678 34.2951 292.665 33.4927 293.869 33.4927C294.64 33.4927 294.733 33.5853 294.548 34.2642C294.394 34.9123 294.455 35.0358 295.011 35.0358C295.844 35.0358 296.214 34.2025 295.628 33.647C294.98 33.0298 294.085 32.9063 292.881 33.2458Z" fill="#E1E0E8"/>
<path d="M300.01 33.5537C298.282 34.4795 296.862 36.4238 296.677 38.1829C296.369 40.7753 298.405 41.4542 300.566 39.5099L301.769 38.3989L301.738 39.4174C301.646 40.837 302.633 40.9296 303.837 39.6025L304.763 38.615L303.899 39.1705C303.405 39.4791 302.973 39.6643 302.911 39.6025C302.849 39.5408 303.127 38.1829 303.528 36.5781C303.96 34.9733 304.3 33.5537 304.3 33.4302C304.3 33.3068 303.93 33.2451 303.467 33.2451C302.973 33.2759 302.325 33.2142 301.954 33.0908C301.553 32.9365 300.874 33.1216 300.01 33.5537ZM302.633 35.1276C302.387 36.6707 301.121 38.8927 300.257 39.3556C297.85 40.6827 297.418 37.7508 299.609 34.7882C300.473 33.5846 301.43 33.1216 302.263 33.5537C302.726 33.8006 302.788 34.0783 302.633 35.1276Z" fill="#E1E0E8"/>
<path d="M307.695 33.3071C306.677 33.5231 306.491 33.6465 307.016 33.7391C307.849 33.8626 307.849 33.77 306.923 37.0104C306.491 38.4609 306.152 39.8805 306.152 40.1274C306.152 40.8372 307.109 40.6829 307.294 39.9731C307.541 39.0781 309.392 35.313 309.948 34.5724C310.349 34.0786 310.472 34.0477 310.905 34.3872C311.522 34.9118 312.324 34.6032 312.324 33.8317C312.324 32.4738 310.689 32.9676 309.392 34.7267C308.559 35.8685 308.466 35.7451 308.929 34.1403C309.084 33.5539 309.207 33.0602 309.145 33.0293C309.115 32.9984 308.466 33.1219 307.695 33.3071Z" fill="#E1E0E8"/>
<path d="M315.903 33.3384C313.712 34.1099 312.015 36.2394 312.015 38.2762C312.015 39.6341 312.91 40.5908 314.175 40.5908C315.163 40.5908 317.385 39.6033 317.755 39.0169C317.971 38.6157 317.94 38.6466 316.274 39.4798C315.317 39.9736 314.977 40.0045 314.329 39.7267C313.712 39.4489 313.558 39.1403 313.558 38.2762C313.558 37.4738 313.681 37.1961 314.052 37.1961C315.101 37.1961 316.983 36.4554 317.724 35.7764C318.65 34.9123 318.742 33.647 317.909 33.1841C317.199 32.8137 317.385 32.8137 315.903 33.3384ZM317.477 33.9865C317.755 34.8197 314.576 37.3812 313.99 36.7949C313.743 36.548 314.422 35.3444 315.348 34.326C316.15 33.4618 317.261 33.3075 317.477 33.9865Z" fill="#E1E0E8"/>
<path d="M77.9304 33.4923C77.4058 33.7084 77.4058 33.7701 77.8687 33.7701C78.5477 33.8009 78.5168 34.4182 77.7761 36.8871C77.0972 39.14 77.0046 40.1584 77.4984 40.4361C78.0848 40.8065 79.2266 40.3127 79.7821 39.4486C80.3376 38.5845 80.3376 38.5845 79.7204 39.1091C79.3809 39.4177 78.9489 39.6646 78.7328 39.6646C78.5168 39.6646 78.4242 39.4177 78.5168 39.1091C78.5785 38.8313 78.9489 37.5352 79.3192 36.2699C79.6896 35.0045 80.029 33.7701 80.0908 33.554C80.2451 33.122 78.8872 33.0911 77.9304 33.4923Z" fill="#E1E0E8"/>
<path d="M146.165 33.462C145.579 33.678 145.579 33.7088 146.227 33.8632L146.875 34.0483L146.258 36.1469C145.27 39.5108 145.208 40.2515 145.795 40.4675C146.535 40.7452 147.708 40.1589 148.171 39.2948L148.541 38.5849L147.77 39.2948C147.369 39.6651 146.937 39.912 146.844 39.7885C146.69 39.6342 147.492 36.3012 148.264 33.8632C148.449 33.2768 148.387 33.1842 147.616 33.2151C147.153 33.2151 146.474 33.3385 146.165 33.462Z" fill="#E1E0E8"/>
<path d="M171.595 33.4925C171.07 33.6468 171.009 33.7394 171.379 33.7703C172.089 33.8011 172.058 34.4492 171.132 37.628C170.206 40.8067 170.237 40.5907 170.947 40.5907C171.348 40.5907 171.719 40.066 172.243 38.6464C172.644 37.5971 172.953 36.5478 172.922 36.3009C172.891 36.0849 173.076 35.3134 173.323 34.6344C173.57 33.9555 173.755 33.3691 173.755 33.3074C173.755 33.1222 172.428 33.2148 171.595 33.4925Z" fill="#E1E0E8"/>
<path d="M212.486 33.4925C211.962 33.7086 211.962 33.7703 212.425 33.7703C213.104 33.8011 213.104 34.048 212.27 37.2576C211.715 39.3871 211.653 40.0351 211.962 40.3438C212.486 40.8684 213.844 40.3438 214.431 39.3562L214.924 38.5847L214.122 39.2945C213.073 40.2512 212.857 39.7883 213.412 37.844C213.659 36.9799 214.091 35.5602 214.307 34.727L214.77 33.1839L213.937 33.2148C213.474 33.2148 212.826 33.3382 212.486 33.4925Z" fill="#E1E0E8"/>
<path d="M266.959 33.4927C266.557 33.7396 266.588 33.8013 267.051 33.8013C267.73 33.8013 267.699 34.1099 266.959 36.5788C266.619 37.6898 266.341 39.0478 266.341 39.5724C266.341 40.4365 266.465 40.5908 267.051 40.5908C267.452 40.5908 268.162 40.1588 268.687 39.6033C269.181 39.0478 269.304 38.8317 268.934 39.1403C268.255 39.6958 267.576 39.8501 267.576 39.4181C267.576 39.2946 267.915 37.9985 268.347 36.548C268.749 35.1284 269.119 33.7705 269.119 33.5544C269.119 33.1224 267.637 33.0606 266.959 33.4927Z" fill="#E1E0E8"/>
</svg>
